<svg xmlns="http://www.w3.org/2000/svg" viewBox="0 0 626.34 474.08"><defs><style>.cls-1{fill:#ffbfdc;}.cls-12,.cls-2{fill:#ffd2fc;}.cls-2{opacity:0.74;}.cls-2,.cls-3,.cls-6{isolation:isolate;}.cls-3{fill:#ff1578;opacity:0.67;}.cls-4{fill:#ec368d;}.cls-5{fill:#150001;}.cls-6{opacity:0.3;}.cls-7{fill:#fff;}.cls-8{fill:#f5ef99;}.cls-9{fill:#e980fc;}.cls-10{fill:#df5f95;}.cls-11{fill:#ffaaf1;}.cls-13{fill:#ff6aa9;}.cls-14{fill:#ffc3ef;}.cls-15{fill:#b96ac9;}.cls-16{fill:#ff8ae6;}.cls-17{fill:#ff8ab1;}.cls-18{fill:#ff5ffc;}.cls-19{fill:#ff8acb;}.cls-20{fill:#ff6ae7;}.cls-21{fill:#ec36c9;}.cls-22{fill:#ff3fa6;}.cls-23{fill:#88008a;}.cls-24{fill:#ff6ac6;}.cls-25{fill:#db1381;}.cls-26{fill:#e90055;}</style></defs><g id="Layer_2" data-name="Layer 2"><g id="Layer_1-2" data-name="Layer 1"><path class="cls-1" d="M612.92,258.36c-22.57-70.08-6.38-148.69-36.08-207.77S296.76-34,229.82,76.85c0,0-7.71,86.26-60.69,185.84-31.38,59,43,94.94,117.42,127.94L400.47,285.75c4.34.38,52.56-32.7,52.56-32.7L311.57,401.71c42.05,18.77,80.16,37.3,94.18,59.45C446.87,526.14,635.49,328.44,612.92,258.36Z"/><path id="path315" class="cls-2" d="M220.8,159.62S243.73,41.76,354.42,58.41s170.49,76.87,64.88,137.08-161.58,51.26-198.5-35.87Z"/><path id="path317" class="cls-3" d="M194.81,375.19c71.28-61.54,149.74-106.06,226.7-73.89s90.34-31.31,98.68-92.16S711.75,311.73,577.07,370,408.13,399.54,404,363,194.81,375.19,194.81,375.19Z"/><g id="legs"><path id="path323" class="cls-4" d="M316.75,298.13s5.44,36.44,2.7,44.67-8,24.74-8,24.74c2.26-2.19,4.86-5.13,7.4-7,1.29-.91,3.07-2.89,4.47-3.61,1,0,1.43-.06,2.07.58a39.26,39.26,0,0,1,4.29,5.33,16,16,0,0,1,2.81,7.11v.08a9.56,9.56,0,0,1-1.24,5.89s5.47,1.93,4.87-10.54c.45.64.88,1.3,1.28,2a12.4,12.4,0,0,1,1.65,3.58,3.25,3.25,0,0,0,.15-.4c.07-.22.13-.46.19-.69.11-.45.22-.9.31-1.34.19-.93.34-1.85.48-2.78a15.91,15.91,0,0,0,.25-2.48c0-1.38,0-2,1.5-.94a3.68,3.68,0,0,1,1.48,3.28,8.57,8.57,0,0,0,.21-4.61,52,52,0,0,0-5.6-15.78,66.6,66.6,0,0,1-7.89-34.1A75.31,75.31,0,0,1,332,296.38S317.33,298.71,316.75,298.13Z"/><path id="path325" class="cls-4" d="M351.21,292.66s2.63,24.78,2.63,26.3-5.86,12.5-6.33,15c0,0,8.88-3.93,10.45-2.36s8.4,6.65,2.93,18.71c0,0,10-2.54,10-5.59a6.94,6.94,0,0,1,.43,4.44s6-5.13,4.33-9c0,0,2.6,4.44,2.6,5.93,0,0,8.25-7,3.08-13.43s-9.22-4.46-13-9.93-3.76-33.53-3.76-33.53-12.23,3.5-13.39,3.5Z"/></g><path id="path328" class="cls-4" d="M606.2,65.61a197.43,197.43,0,0,0-45.1,45.57c-33.77,48.24-59.55,104.26-109.44,138.57-23.36,16.08-49.52,27.71-76.48,36.26C347,295,316.9,301,287.27,297.71a409.77,409.77,0,0,1-42.78-7.22L16,413.41l14.08-11.64L0,415.48l218.12-171.2,27.28-29.52S370.38,91.27,408.76,89,461,63.34,461,63.34a41,41,0,0,1,7.27-6.06h0c.34-.09,6-1.53,14.18-3,0,0,59.27,17.55,82.1,10.61h0C590.42,70.6,606.2,65.61,606.2,65.61Z"/><circle id="circle330" class="cls-5" cx="516.45" cy="81.17" r="9.93"/><g class="cls-6"><ellipse id="ellipse332" class="cls-7" cx="519.92" cy="81.67" rx="3.32" ry="3"/><path class="cls-8" d="M519.92,84.86a3.2,3.2,0,1,1,3.51-3.19A3.36,3.36,0,0,1,519.92,84.86Zm0-6a2.82,2.82,0,1,0,3.12,2.8A3,3,0,0,0,519.92,78.87Z"/></g><g class="cls-6"><ellipse id="ellipse334" class="cls-7" cx="520.27" cy="75.31" rx="1.23" ry="0.9"/><path class="cls-8" d="M520.27,76.41a1.13,1.13,0,1,1,1.43-1.1A1.29,1.29,0,0,1,520.27,76.41Zm0-1.8c-.56,0-1,.32-1,.7s.48.71,1,.71,1-.32,1-.71S520.84,74.61,520.27,74.61Z"/></g><path id="path336" class="cls-9" d="M426.39,154.78a121.43,121.43,0,0,1-21.63,11.95c-15.4,6.29-25.27,4.64-31.61.23C363,159.92,362,145.87,362,145.87c9,1.78,24.14,3.68,37.27.44.31.36,8.93,10.27,24.79,5.16a19.55,19.55,0,0,0,2.33,3.31Z"/><path id="path338" class="cls-10" d="M360,186c-5.63,5.18-11,7-15.93,6.77a20.27,20.27,0,0,1-7.56-1.87c-9.7-4.36-16.13-14.83-16.13-14.83,3.76-.86,7.94-3.1,12.34-7.6a41,41,0,0,0,12.36,3.13A43.56,43.56,0,0,0,360,186Z"/><path id="path340" class="cls-11" d="M336.49,190.92c-9.4,6.5-17.59,10.56-24.7,12.87-8,2.58-14.63,3-20.08,2.07h0a29.39,29.39,0,0,1-21.62-15.78c5.77-1.47,13-6.41,21.78-17.6a31.32,31.32,0,0,0,10.81-2.17c.28.32,7.46,8.12,17.68,5.78,0,0,6.43,10.47,16.13,14.83Z"/><path id="path342" class="cls-12" d="M332.7,168.48c-4.4,4.5-8.58,6.75-12.34,7.6-10.22,2.34-17.4-5.46-17.68-5.77,5.13-1.93,10.88-5.3,17.27-10.64a40.18,40.18,0,0,0,12.75,8.81Z"/><path id="path344" class="cls-13" d="M351.9,208.13c-35.13,11.72-40.11-4.34-40.11-4.34,7.14-2.31,15.3-6.37,24.7-12.87a20.24,20.24,0,0,0,7.57,1.84A19.94,19.94,0,0,0,351.9,208.13Z"/><path id="path346" class="cls-14" d="M448.49,96.67c-49.26,18.26-67.65-4.72-68-5.2,1.27-.29,2.53-.56,3.8-.82,14.66-3,31.77-7.15,46.45-2.22a83.86,83.86,0,0,1,17.77,8.24Z"/><path id="path348" class="cls-15" d="M313,238.81a326.63,326.63,0,0,1-45.82,5.56,47,47,0,0,1-22.63-5.21h0a35.39,35.39,0,0,1-9.3-6.75c8.58,1,19.38-.89,30.84-10.42a17.32,17.32,0,0,0,10.4,5.77c0,.32-.36,11.48,36.51,11.05Z"/><path id="path350" class="cls-16" d="M190.42,256.73c5.07-7.5,10.31-15.38,17-21.59.42-.39,10.72,3.57,11.71,3.82a59.65,59.65,0,0,0,24,.72,4.88,4.88,0,0,1,3.73.55,46.91,46.91,0,0,0,20.35,4.13"/><path id="path352" class="cls-17" d="M244.62,239.16c-16.2,5.36-37.22-4-37.22-4a82.13,82.13,0,0,0,9-10.37,38.7,38.7,0,0,0,18.92,7.63h0A35.64,35.64,0,0,0,244.62,239.16Z"/><path id="path354" class="cls-15" d="M278.66,200.32c-32.16,24.77-46.28,2.57-46.28,2.57,5.17-6.95,11.32-14.92,18.92-24,0,0,5.7,14.51,18.79,11.17A29,29,0,0,0,278.66,200.32Z"/><path id="path356" class="cls-12" d="M291.87,172.47c-8.8,11.19-16,16.14-21.78,17.61-13.11,3.34-18.79-11.17-18.79-11.17,5.2-6.2,11.07-12.93,17.76-20.19,0,0,7.24,13.89,22.81,13.75Z"/><path id="path358" class="cls-15" d="M396.73,208.35c-5,2.83-10,5.44-15,7.83a294,294,0,0,1-27.39,11.28l-2.62.93h-.08c-28.62,8.63-44,.59-51.93-8.19a35.55,35.55,0,0,1-8-14.33c5.45.88,12.08.51,20.08-2.08,0,0,5,16.08,40.11,4.35h0c7,5.2,20.09,7.94,44.83.21Z"/><path id="path360" class="cls-12" d="M351.64,228.41A278.85,278.85,0,0,1,313,238.81h0c-36.87.43-36.51-10.71-36.48-11.05A17.35,17.35,0,0,1,266.14,222c-11.46,9.52-22.26,11.39-30.84,10.42h0a38.76,38.76,0,0,1-18.92-7.63c4.39-5.77,9.41-13,16-21.89,0,0,14.14,22.21,46.28-2.57a29,29,0,0,0,13.05,5.54h0a35.53,35.53,0,0,0,8,14.36c7.94,8.79,23.29,16.83,51.91,8.19Z"/><path id="path362" class="cls-18" d="M424.1,190.34a228.52,228.52,0,0,1-27.36,18h0c-24.74,7.74-37.86,5-44.82-.22h0a19.92,19.92,0,0,1-7.86-15.37c4.91.2,10.31-1.58,15.93-6.76,8.52,4.92,20.72,7.74,36.69,1.4C401.67,192.58,410.07,195.67,424.1,190.34Z"/><path id="path364" class="cls-19" d="M448.52,167.54a165.7,165.7,0,0,1-24.41,22.8c-14,5.33-22.43,2.24-27.44-2.92-16,6.37-28.17,3.53-36.68-1.4a43.62,43.62,0,0,1-14.93-14.41c7.75.74,17-.4,28.1-4.65,6.33,4.41,16.21,6.06,31.6-.23.34.46,16.52,21.63,43.76.81Z"/><path id="path366" class="cls-20" d="M335.36,142.74c-10,4.28-17.82,5.27-23.89,4.58-14.13-1.62-18.71-12.41-18.71-12.41q6.42-5.61,13.36-10.59h0l0,0,.07.07.16.16a1.59,1.59,0,0,1,.13.13l.31.32.17.16.83.8.41.38.86.77a4.4,4.4,0,0,0,.39.35c1,.9,2.21,1.93,3.57,3l.45.35,1.07.82.42.32.48.35.52.39c.18.11.36.26.54.38,1.91,1.36,4,2.75,6.31,4.08l1.1.59c.69.38,1.39.76,2.11,1.11.36.19.72.38,1.1.55l.7.34.82.38,1.06.46,1,.41c.33.13.52.22.79.31l.75.29.76.28.75.27.91.29Z"/><path id="path368" class="cls-12" d="M373.15,167c-11.07,4.25-20.36,5.39-28.09,4.65A39.82,39.82,0,0,1,320,159.67a41.72,41.72,0,0,1-8.48-12.34c6.07.69,13.9-.3,23.89-4.58l.11,0,1.19.33.84.22.9.22.67.15,1,.2.81.15c.31.05.59.11.93.15l1.52.19.5,0,.64.06.49,0c.66,0,1.32.06,2,.07h.8c.89,0,1.79-.05,2.68-.13a25,25,0,0,0,2.64-.34c.31,0,.6-.1.91-.15,0,0,3.11.9,8,1.87,0,0,1.06,14,11.15,21.09Z"/><path id="path370" class="cls-15" d="M320,159.67c-6.39,5.36-12.14,8.71-17.27,10.64a31.44,31.44,0,0,1-10.8,2.16c-15.57.14-22.81-13.75-22.81-13.75q6.06-6.58,13.06-13.76,3.12-3.19,6.39-6.23,2.09-1.93,4.24-3.81s4.58,10.79,18.71,12.41A41.72,41.72,0,0,0,320,159.67Z"/><path id="path372" class="cls-21" d="M380,125.28c-8.24,11.57-17.27,17-26.06,18.72-.31.05-.6.11-.91.15a26.67,26.67,0,0,1-2.65.34c-.89.08-1.78.12-2.68.13h-.8c-.66,0-1.32,0-2-.07l-.5,0-.64-.06-.5,0-1.51-.19-.94-.15-.8-.15-1-.2-.67-.15-.9-.22-.83-.22-1.19-.33-.12,0-.63-.2-.91-.29-.76-.27-.76-.27-.74-.29-.79-.31-1-.41-1-.47-.82-.37-.71-.34-1.1-.55c-.71-.36-1.42-.73-2.1-1.11l-1.1-.6c-2.29-1.32-4.41-2.72-6.31-4.07l-.54-.39-.52-.38-.48-.35-.42-.32-1.08-.83-.44-.35c-1.4-1.1-2.6-2.13-3.57-3l-.4-.35c-.31-.27-.59-.54-.86-.78l-.4-.38c-.32-.3-.6-.6-.83-.8l-.17-.16-.32-.31-.12-.14-.16-.16-.07-.07-.05,0h0a190.61,190.61,0,0,1,16.68-10.72s21.52,18.62,57.2,11.63Z"/><path id="path374" class="cls-4" d="M412.14,113A107.06,107.06,0,0,1,380,125.26c-35.68,7-57.25-11.66-57.25-11.66q7.5-4.29,15.38-7.92,4.35-2,8.77-3.79h0c.49.37,25.4,19,58.92,6.85a33.31,33.31,0,0,0,6.29,4.23Z"/><path id="path376" class="cls-22" d="M467.93,128c-.2,8.1-3.16,16-7.34,23-18.46,17.15-29.64,9.05-34.17,3.77a19.6,19.6,0,0,1-2.34-3.31c-15.84,5.11-24.48-4.8-24.79-5.16-13.1,3.24-28.24,1.32-37.27-.44-4.92-1-8-1.87-8-1.87,8.81-1.72,17.82-7.15,26.06-18.72A107,107,0,0,0,412.16,113c1.19.64,2.53,1.3,4,1.93,0,0-12.1,16.89,18.24,17.82S467.93,128,467.93,128Z"/><path id="path378" class="cls-23" d="M460.57,151a117.62,117.62,0,0,1-12.05,16.53c-27.24,20.85-43.42-.35-43.76-.81a121.43,121.43,0,0,0,21.63-11.95c4.53,5.28,15.74,13.38,34.18-3.77Z"/><path id="path380" class="cls-24" d="M467.93,128s-3.14,5.66-33.49,4.73-18.24-17.82-18.24-17.82c9.82,4.17,26.34,7.33,48.23-2.16a29.79,29.79,0,0,1,3.5,13.32Z"/><path id="path382" class="cls-12" d="M464.4,112.75c-21.88,9.49-38.41,6.31-48.24,2.16-1.5-.63-2.85-1.29-4-1.93a34,34,0,0,1-6.28-4.22c-33.52,12.12-58.43-6.49-58.91-6.86a215.53,215.53,0,0,1,33.53-10.43c.37.48,18.76,23.46,68,5.2C455.11,100.84,460.9,106.13,464.4,112.75Z"/><path id="path387" d="M560.44,81.67S603,66.19,606.2,65.59C606.2,65.61,588.52,74.15,560.44,81.67Z"/><path id="path389" class="cls-25" d="M495.82,172.34s-83,100.82-210.28,106.28c0,0,127.72,4.1,210.28-106.28Z"/><path id="path391" class="cls-26" d="M534.54,54.56c-14.1-5.53-37.2-2.9-52.07-.27-8.16,1.44-13.84,2.87-14.18,3,10.32-7,31.46-16.18,62.35-4.56q2,1,3.9,1.86Z"/><path id="path385" class="cls-25" d="M489,155.46s-57.47,82.1-130,91.71c0,0,82.1-10.52,130-91.71Z"/><path id="path393" class="cls-25" d="M539.38,144.65S398.79,306.4,294.12,298.29C294.12,298.29,444.78,321.82,539.38,144.65Z"/><path id="path395" class="cls-25" d="M210.74,279.53,107.19,348.86S207.69,284.29,210.74,279.53Z"/><path id="path397" class="cls-25" d="M472.25,86.23l32.84-2.44s-9.73,3.65-11.55,5.47,13.58.4,13.58.4l-6.28,4.87s13.17.2,19.05-1.62,21.88-6.47,21.88-6.47l-12.35,6.28,17.63-1.19L529.42,99h11.35a65.19,65.19,0,0,1-34.87,7.5C486,105.1,482.39,98,474.48,98c0,0,9.89-2,11.35-2.53,0,0-3.29-2.89-9.88-2.89s-10.59-5.68-10.59-5.68Z"/><path id="path399" class="cls-25" d="M564.57,64.9a31.68,31.68,0,0,1-3.83.88c-1.44.25-2.88.42-4.33.53s-3.17.19-4.76.21-3.41,0-5.11-.09-3.58-.19-5.36-.34-3.71-.34-5.57-.56-3.78-.47-5.66-.74-3.81-.6-5.71-.89-3.76-.65-5.65-1-3.68-.71-5.51-1.09-3.54-.74-5.31-1.12l-5-1.14-4.64-1.11c-1.4-.34-2.8-.69-4.17-1s-2.44-.6-3.67-1l-3-.82c-1.2-.33-2.39-.64-3.58-.94a4.49,4.49,0,0,1-.71-.15c-.3-.13,0-.28.16-.34A4.49,4.49,0,0,1,484,54l1.56-.26c1.09-.18,2.19-.35,3.28-.51q3.5-.51,7-.92c2.45-.27,4.91-.51,7.37-.68s5-.29,7.53-.33,5,0,7.42.13,4.72.36,7.06.72a49.56,49.56,0,0,1,6.48,1.41c1,.29,1.91.6,2.84,1s1.87.86,2.79,1.26a143.47,143.47,0,0,0,27.23,9.09Z"/><polygon id="polygon401" class="cls-25" points="0 415.46 204.84 254.88 30.11 401.77 0 415.46"/><polygon id="polygon403" class="cls-25" points="154.48 334.27 244.49 290.48 16.02 413.41 154.48 334.27"/></g></g></svg>