<svg xmlns="http://www.w3.org/2000/svg" viewBox="0 0 375.19 374.61"><defs><style>.cls-1{fill:#f58999;}.cls-2{fill:#fff;}.cls-3{fill:none;stroke:#ff6aa9;stroke-miterlimit:10;stroke-width:0.25px;}</style></defs><g id="Layer_2" data-name="Layer 2"><g id="Layer_1-2" data-name="Layer 1"><path id="path1977" class="cls-1" d="M169.45,50.05H129.71A4.68,4.68,0,0,0,125,54.72a4.53,4.53,0,0,0,.33,1.71l40.23,103.26a4.67,4.67,0,0,1-6.05,6.05L56.43,125.51a4.68,4.68,0,0,0-6.38,4.35v39.75Z"/><path id="path1985" class="cls-1" d="M325.13,169.61H210.25a4.68,4.68,0,0,1-4.67-4.68V50.05"/><path id="path1997" class="cls-1" d="M205.73,323.84h39.75a4.67,4.67,0,0,0,4.36-6.37L209.76,214.26a4.66,4.66,0,0,1,6.07-6l103.06,40.82a4.67,4.67,0,0,0,6.07-2.62,4.82,4.82,0,0,0,.33-1.72V205Z"/><path id="path1975" class="cls-1" d="M49.9,169.61H164.79a4.68,4.68,0,0,0,4.67-4.68V50.05"/><path id="path1987" class="cls-1" d="M325.13,169.61V129.86a4.67,4.67,0,0,0-6.37-4.35L215.49,165.75a4.67,4.67,0,0,1-6.05-6.05L249.67,56.42a4.68,4.68,0,0,0-4.35-6.37H205.58"/><path id="path1995" class="cls-1" d="M325.29,205H210.4a4.67,4.67,0,0,0-4.67,4.67V324.57"/><path id="path2005" class="cls-1" d="M50.05,205H164.94a4.67,4.67,0,0,1,4.67,4.67V324.57"/><path id="path2007" class="cls-1" d="M50.05,205v39.7a4.67,4.67,0,0,0,6.4,4.35l103.18-40.83a4.68,4.68,0,0,1,6.07,6.05L125.37,317.47a4.66,4.66,0,0,0,2.65,6,4.5,4.5,0,0,0,1.7.32h39.73"/><path id="path1981" class="cls-1" d="M205.58,32.7v-28a4.67,4.67,0,0,1,7.62-3.62L242,24.4A4.67,4.67,0,0,1,239,32.69H205.58"/><path id="path1983" class="cls-1" d="M169.45,32.7v-28a4.67,4.67,0,0,0-7.62-3.62L133.1,24.4A4.66,4.66,0,0,0,136,32.69h33.42"/><path id="path1991" class="cls-1" d="M342.49,205.73v33.42a4.66,4.66,0,0,0,8.29,2.94l23.36-28.74a4.68,4.68,0,0,0-3.63-7.62h-28"/><path id="path1993" class="cls-1" d="M342.49,169.61h28a4.68,4.68,0,0,0,3.63-7.62l-23.37-28.75a4.67,4.67,0,0,0-8.29,2.95v33.42"/><path id="path2001" class="cls-1" d="M169.45,341.91H136a4.67,4.67,0,0,0-2.95,8.29l28.74,23.36a4.67,4.67,0,0,0,7.62-3.63v-28"/><path id="path2003" class="cls-1" d="M205.58,341.91v28a4.68,4.68,0,0,0,7.62,3.63L242,350.21a4.67,4.67,0,0,0-2.95-8.29H205.58"/><path id="path2011" class="cls-1" d="M32.7,169.61V136.19a4.67,4.67,0,0,0-8.29-2.95L1.06,162a4.68,4.68,0,0,0,3.62,7.62h28"/><path id="path2013" class="cls-1" d="M32.7,205.73h-28a4.67,4.67,0,0,0-3.62,7.62L24.4,242.09a4.66,4.66,0,0,0,8.29-2.94V205.73"/><g id="g2019"><path id="path2015" class="cls-1" d="M279.83,269.19l12.53,12.54a.71.71,0,0,0,1,0h0l12.54-12.54"/><path id="path2017" class="cls-1" d="M305.92,269.19l-4.34-4.33a.71.71,0,0,0-1-.05.8.8,0,0,0-.18.27l-6.87,15.65a.7.7,0,0,1-.92.4.66.66,0,0,1-.4-.4l-6.87-15.63a.72.72,0,0,0-.93-.39.7.7,0,0,0-.24.17l-4.34,4.34Z"/></g><path id="path2021" class="cls-1" d="M311.75,271.24l3.06-3.06a.72.72,0,0,1,1.23.44l.58,5.68a.71.71,0,0,1-1.22.59l-3.65-3.65"/><path id="path2023" class="cls-1" d="M307.81,267.3l3.06-3.06a.7.7,0,0,0,0-1,.75.75,0,0,0-.47-.23l-5.68-.58a.71.71,0,0,0-.59,1.22l3.65,3.65"/><g id="g2029"><path id="path2025" class="cls-1" d="M309.86,299.23l-12.54-12.54a.7.7,0,0,1,0-1v0l12.54-12.53"/><path id="path2027" class="cls-1" d="M309.86,299.23l4.33-4.34a.7.7,0,0,0,0-1,.81.81,0,0,0-.24-.17l-15.66-6.87a.7.7,0,0,1-.4-.92.69.69,0,0,1,.4-.4L314,278.66a.71.71,0,0,0,.38-.93.66.66,0,0,0-.17-.24l-4.33-4.34"/></g><path id="path2031" class="cls-1" d="M307.81,305.06l-3.65,3.65a.72.72,0,0,0,0,1,.76.76,0,0,0,.59.21l5.68-.59a.71.71,0,0,0,.66-.76.69.69,0,0,0-.22-.47l-3.06-3.06"/><path id="path2033" class="cls-1" d="M311.75,301.12l3.06,3.06a.72.72,0,0,0,1.23-.43l.58-5.69a.7.7,0,0,0-1.22-.58l-3.65,3.64"/><g id="g2039"><path id="path2035" class="cls-1" d="M306,303.1l-12.54-12.53a.71.71,0,0,0-1,0l0,0L279.92,303.1"/><path id="path2037" class="cls-1" d="M280,303l4.34,4.34a.71.71,0,0,0,1,0,.81.81,0,0,0,.17-.24l6.89-15.64a.71.71,0,0,1,.92-.4.78.78,0,0,1,.4.4l6.79,15.7a.7.7,0,0,0,.92.39.6.6,0,0,0,.25-.16l4.33-4.34Z"/></g><path id="path2041" class="cls-1" d="M274.07,301l-3.65-3.65a.7.7,0,0,0-1,0,.68.68,0,0,0-.22.63l.58,5.68a.71.71,0,0,0,.76.66.69.69,0,0,0,.47-.22l3.06-3.06"/><path id="path2043" class="cls-1" d="M278,305,275,308a.72.72,0,0,0,0,1,.74.74,0,0,0,.47.22l5.68.59a.72.72,0,0,0,.81-.6.7.7,0,0,0-.22-.63L278,305"/><g id="g2049"><path id="path2045" class="cls-1" d="M276,273.07l12.54,12.54a.71.71,0,0,1,0,1v0L276,299.16"/><path id="path2047" class="cls-1" d="M276,273.07l-4.33,4.33a.71.71,0,0,0,0,1,.68.68,0,0,0,.26.18l15.71,6.8a.71.71,0,0,1,.4.93.67.67,0,0,1-.4.39l-15.66,6.87a.71.71,0,0,0-.38.93.67.67,0,0,0,.16.24l4.34,4.34"/></g><path id="path2051" class="cls-1" d="M278,267.31l3.65-3.64a.7.7,0,0,0,0-1,.72.72,0,0,0-.63-.23l-5.68.59a.71.71,0,0,0-.66.76.72.72,0,0,0,.22.47l3.06,3.05"/><path id="path2053" class="cls-1" d="M274,271.26,271,268.2a.71.71,0,0,0-1,0,.69.69,0,0,0-.22.46l-.59,5.69a.72.72,0,0,0,.65.79.7.7,0,0,0,.58-.21l3.65-3.64"/><g id="g2059"><path id="path2055" class="cls-1" d="M72.4,269l12.54,12.53a.71.71,0,0,0,1,0l0,0L98.49,269"/><path id="path2057" class="cls-1" d="M98.49,269l-4.33-4.34a.72.72,0,0,0-1,0,.63.63,0,0,0-.16.24l-6.87,15.66a.71.71,0,0,1-1.32,0l-6.87-15.64a.71.71,0,0,0-.93-.38.67.67,0,0,0-.24.16L72.42,269Z"/></g><path id="path2061" class="cls-1" d="M104.33,271l3.06-3.05a.7.7,0,0,1,1,0,.78.78,0,0,1,.23.47l.58,5.69a.7.7,0,0,1-.59.8.68.68,0,0,1-.63-.22L104.33,271"/><path id="path2063" class="cls-1" d="M100.39,267.05l3.06-3.06a.71.71,0,0,0,0-1,.69.69,0,0,0-.47-.22l-5.68-.59a.71.71,0,0,0-.59,1.23l3.65,3.64"/><g id="g2069"><path id="path2065" class="cls-1" d="M102.44,299,89.9,286.44a.72.72,0,0,1,0-1h0l12.54-12.54"/><path id="path2067" class="cls-1" d="M102.44,299l4.33-4.34a.72.72,0,0,0-.22-1.17L90.9,286.62a.72.72,0,0,1,0-1.33l15.65-6.87a.7.7,0,0,0,.39-.92.74.74,0,0,0-.17-.25l-4.33-4.33"/></g><path id="path2071" class="cls-1" d="M100.39,304.81l-3.65,3.65a.71.71,0,0,0,0,1,.73.73,0,0,0,.63.22l5.68-.59a.71.71,0,0,0,.66-.76.69.69,0,0,0-.22-.47l-3.06-3.06"/><path id="path2073" class="cls-1" d="M104.33,300.87l3.06,3.06a.7.7,0,0,0,1,0,.75.75,0,0,0,.23-.46l.58-5.69a.71.71,0,0,0-.6-.81.7.7,0,0,0-.62.23l-3.65,3.64"/><g id="g2079"><path id="path2075" class="cls-1" d="M98.59,302.86,86.05,290.32a.71.71,0,0,0-1,0h0L72.5,302.86"/><path id="path2077" class="cls-1" d="M72.58,302.78l4.33,4.34a.72.72,0,0,0,1,0,.63.63,0,0,0,.16-.24L85,291.27a.71.71,0,0,1,.93-.4.67.67,0,0,1,.39.4l6.8,15.7a.72.72,0,0,0,.92.39.85.85,0,0,0,.25-.17l4.33-4.33Z"/></g><path id="path2081" class="cls-1" d="M66.65,300.79,63,297.15a.71.71,0,0,0-1,0,.72.72,0,0,0-.23.63l.59,5.69a.72.72,0,0,0,.76.66.75.75,0,0,0,.47-.23l3.06-3.06"/><path id="path2083" class="cls-1" d="M70.59,304.74l-3.06,3.05a.71.71,0,0,0,0,1A.69.69,0,0,0,68,309l5.68.59a.71.71,0,0,0,.81-.6.74.74,0,0,0-.22-.63l-3.65-3.64"/><g id="g2089"><path id="path2085" class="cls-1" d="M68.56,272.82l12.53,12.54a.72.72,0,0,1,0,1h0L68.56,298.92"/><path id="path2087" class="cls-1" d="M68.56,272.82l-4.34,4.34a.71.71,0,0,0,0,1,.7.7,0,0,0,.25.17l15.71,6.8a.72.72,0,0,1,0,1.33l-15.66,6.87a.7.7,0,0,0-.38.92.67.67,0,0,0,.16.25l4.34,4.33"/></g><path id="path2091" class="cls-1" d="M70.53,267.07l3.64-3.65a.7.7,0,0,0-.58-1.22l-5.69.58a.71.71,0,0,0-.65.76.69.69,0,0,0,.22.47l3.06,3.06"/><path id="path2093" class="cls-1" d="M66.58,271l-3-3.05a.72.72,0,0,0-1,0,.69.69,0,0,0-.22.47l-.59,5.68a.71.71,0,0,0,1.23.59L66.58,271"/><g id="g2099"><path id="path2095" class="cls-1" d="M64.21,84.45H81.93a.71.71,0,0,0,.71-.71V66"/><path id="path2097" class="cls-1" d="M82.66,66H76.52a.7.7,0,0,0-.72.7.69.69,0,0,0,0,.28l6.21,15.94a.7.7,0,0,1-.36.93.68.68,0,0,1-.59,0L65.2,77.64a.71.71,0,0,0-.93.39.69.69,0,0,0,0,.28v6.14Z"/></g><path id="path2101" class="cls-1" d="M88.23,63.32V59a.7.7,0,0,1,.68-.74.65.65,0,0,1,.5.18L93.85,62A.71.71,0,0,1,94,63a.72.72,0,0,1-.61.29H88.24"/><path id="path2103" class="cls-1" d="M82.66,63.32V59a.71.71,0,0,0-.68-.74.68.68,0,0,0-.51.18L77,62a.71.71,0,0,0-.15,1,.72.72,0,0,0,.6.29h5.16"/><g id="g2109"><path id="path2105" class="cls-1" d="M106.68,84.45H89a.72.72,0,0,1-.72-.7h0V66"/><path id="path2107" class="cls-1" d="M106.68,84.45V78.31a.72.72,0,0,0-1-.67L89.76,83.85a.71.71,0,0,1-.94-.36.69.69,0,0,1,0-.58L95,67a.72.72,0,0,0-.39-.93.71.71,0,0,0-.29-.05H88.23"/></g><path id="path2111" class="cls-1" d="M109.36,90v5.16a.71.71,0,0,0,.67.74.7.7,0,0,0,.61-.29l3.6-4.43a.72.72,0,0,0,0-1,.78.78,0,0,0-.51-.18h-4.32"/><path id="path2113" class="cls-1" d="M109.36,84.45h4.31a.71.71,0,0,0,.74-.68.68.68,0,0,0-.18-.51l-3.6-4.43a.7.7,0,0,0-1-.15.68.68,0,0,0-.29.6v5.16"/><g id="g2119"><path id="path2115" class="cls-1" d="M106.7,89.91H89a.71.71,0,0,0-.71.71v17.73"/><path id="path2117" class="cls-1" d="M88.25,108.25h6.14a.71.71,0,0,0,.73-.7.71.71,0,0,0-.06-.28L88.87,91.34a.72.72,0,0,1,.37-.94.69.69,0,0,1,.58,0l15.91,6.3a.72.72,0,0,0,.93-.38.58.58,0,0,0,0-.29V89.91Z"/></g><path id="path2121" class="cls-1" d="M82.66,111H77.5a.71.71,0,0,0-.74.68.73.73,0,0,0,.28.6l4.44,3.6a.72.72,0,0,0,1-.09.67.67,0,0,0,.16-.47V111"/><path id="path2123" class="cls-1" d="M88.23,111v4.32a.73.73,0,0,0,.72.73.71.71,0,0,0,.46-.17l4.44-3.6a.71.71,0,0,0-.46-1.28H88.24"/><g id="g2129"><path id="path2125" class="cls-1" d="M64.23,89.91H82a.71.71,0,0,1,.71.71v17.73"/><path id="path2127" class="cls-1" d="M64.23,89.91V96a.71.71,0,0,0,.7.72.61.61,0,0,0,.29-.05l15.92-6.3a.7.7,0,0,1,.94.35.69.69,0,0,1,0,.58l-6.23,15.93a.7.7,0,0,0,.38.92.75.75,0,0,0,.29.06h6.14"/></g><path id="path2131" class="cls-1" d="M61.56,84.45V79.29a.71.71,0,0,0-.68-.74.72.72,0,0,0-.6.29l-3.6,4.43a.71.71,0,0,0,0,1,.78.78,0,0,0,.51.18h4.32"/><path id="path2133" class="cls-1" d="M61.56,90H57.23a.71.71,0,0,0-.74.68.68.68,0,0,0,.18.51l3.6,4.43a.7.7,0,0,0,1,.15.7.7,0,0,0,.29-.6V90"/><path id="path1973" class="cls-1" d="M285.94,111h-5.16a.71.71,0,0,0-.45,1.28l4.44,3.6a.7.7,0,0,0,1,0,.73.73,0,0,0,.18-.51V111"/><g id="g2139"><path id="path2135" class="cls-1" d="M267.49,84.45h17.73a.71.71,0,0,0,.71-.71V66"/><path id="path2137" class="cls-1" d="M285.94,66h-6.13a.71.71,0,0,0-.73.69.93.93,0,0,0,.05.29l6.22,15.94a.71.71,0,0,1-.38.93.68.68,0,0,1-.56,0L268.5,77.64a.73.73,0,0,0-.94.42.74.74,0,0,0-.05.25v6.14Z"/></g><path id="path2141" class="cls-1" d="M291.52,63.32V59a.69.69,0,0,1,.68-.74.68.68,0,0,1,.5.18l4.44,3.6a.71.71,0,0,1,.15,1,.72.72,0,0,1-.61.29h-5.15"/><path id="path2143" class="cls-1" d="M285.94,63.32V59a.7.7,0,0,0-.68-.74.65.65,0,0,0-.5.18L280.32,62a.71.71,0,0,0-.15,1,.72.72,0,0,0,.6.29h5.16"/><g id="g2149"><path id="path2145" class="cls-1" d="M310,84.45H292.24a.71.71,0,0,1-.71-.71V66"/><path id="path2147" class="cls-1" d="M310,84.45V78.31a.72.72,0,0,0-1-.67l-15.93,6.21a.72.72,0,0,1-.94-.94L298.32,67a.7.7,0,0,0-.67-1h-6.13"/></g><path id="path2151" class="cls-1" d="M312.65,90v5.16a.71.71,0,0,0,.68.74.69.69,0,0,0,.6-.29l3.6-4.43a.72.72,0,0,0,0-1A.78.78,0,0,0,317,90h-4.32"/><path id="path2153" class="cls-1" d="M312.65,84.45H317a.71.71,0,0,0,.74-.68.68.68,0,0,0-.18-.51l-3.6-4.43a.7.7,0,0,0-1-.15.68.68,0,0,0-.29.6v5.16"/><g id="g2159"><path id="path2155" class="cls-1" d="M310,89.91H292.26a.71.71,0,0,0-.71.71v17.73"/><path id="path2157" class="cls-1" d="M291.54,108.25h6.13a.71.71,0,0,0,.73-.7.92.92,0,0,0,0-.28l-6.19-15.93a.71.71,0,0,1,.95-.93l15.9,6.3a.72.72,0,0,0,1-.67V89.91Z"/></g><path id="path2161" class="cls-1" d="M291.52,111v4.32a.7.7,0,0,0,.67.74.68.68,0,0,0,.51-.18l4.44-3.6a.71.71,0,0,0-.46-1.28h-5.15"/><g id="g2167"><path id="path2163" class="cls-1" d="M267.51,89.91h17.73a.71.71,0,0,1,.71.71v17.73"/><path id="path2165" class="cls-1" d="M267.51,89.91V96a.71.71,0,0,0,.7.72.58.58,0,0,0,.29-.05l15.92-6.3a.71.71,0,0,1,.95.35.73.73,0,0,1,0,.58l-6.22,15.93a.7.7,0,0,0,.38.92.72.72,0,0,0,.29.06H286"/></g><path id="path2169" class="cls-1" d="M264.84,84.45V79.29a.72.72,0,0,0-.68-.74.7.7,0,0,0-.6.29L260,83.27a.72.72,0,0,0,.06,1,.77.77,0,0,0,.5.18h4.33"/><path id="path2171" class="cls-1" d="M264.84,90h-4.33a.72.72,0,0,0-.56,1.19l3.61,4.43a.7.7,0,0,0,1,.15.7.7,0,0,0,.29-.6V90"/><g id="Koltuk_Benzeri_Olanlar" data-name="Koltuk Benzeri Olanlar"><g id="g2302"><g id="g2202"><g id="g2182"><path id="path2178" class="cls-2" d="M109.68,155.84h46.77a1.89,1.89,0,0,0,1.9-1.89V107.17"/><path id="path2180" class="cls-2" d="M158.36,107.17H142.17a1.9,1.9,0,0,0-1.91,1.87,2,2,0,0,0,.14.73l16.38,42a1.89,1.89,0,0,1-2.46,2.46l-42-16.38a1.9,1.9,0,0,0-2.46,1.06,2,2,0,0,0-.14.71v16.18Z"/></g><g id="g2188"><path id="path2184" class="cls-2" d="M265.79,155.84H219a1.89,1.89,0,0,1-1.9-1.89V107.17"/><path id="path2186" class="cls-2" d="M217.12,107.17h16.17a1.88,1.88,0,0,1,1.91,1.88,1.8,1.8,0,0,1-.13.72l-16.39,42.05a1.9,1.9,0,0,0,2.47,2.46l42-16.39a1.9,1.9,0,0,1,2.47,1.05,2,2,0,0,1,.14.72v16.18Z"/></g><g id="g2194"><path id="path2190" class="cls-2" d="M158.36,264.75V218a1.89,1.89,0,0,0-1.9-1.89H109.68"/><path id="path2192" class="cls-2" d="M109.68,216.09v16.18a1.88,1.88,0,0,0,1.88,1.9,1.69,1.69,0,0,0,.71-.13l42.05-16.38a1.89,1.89,0,0,1,2.46,1.06,1.86,1.86,0,0,1,0,1.39l-16.38,42a1.89,1.89,0,0,0,1,2.46,1.83,1.83,0,0,0,.73.14h16.18Z"/></g><g id="g2200"><path id="path2196" class="cls-2" d="M219.34,264.78V218a1.9,1.9,0,0,1,1.9-1.9H268"/><path id="path2198" class="cls-2" d="M268,216.11v16.18a1.9,1.9,0,0,1-1.88,1.91,1.83,1.83,0,0,1-.73-.14l-42-16.38a1.89,1.89,0,0,0-2.46,2.46l16.37,42a1.88,1.88,0,0,1-1,2.46,1.83,1.83,0,0,1-.73.14H219.33Z"/></g></g><g id="g2300"><g id="g2208"><path id="path2204" class="cls-2" d="M287.85,274.21l5.1,5.11a.31.31,0,0,0,.42,0h0l5.1-5.11"/><path id="path2206" class="cls-2" d="M298.47,274.21l-1.76-1.76a.29.29,0,0,0-.42,0l-.06.08-2.8,6.37a.28.28,0,0,1-.38.15.28.28,0,0,1-.15-.15l-2.8-6.37a.29.29,0,0,0-.39-.14l-.08.05-1.76,1.77Z"/></g><g id="g2214"><path id="path2210" class="cls-2" d="M304.89,291.25l-5.11-5.11a.3.3,0,0,1,0-.41l5.11-5.11"/><path id="path2212" class="cls-2" d="M304.89,280.62l1.76,1.77a.31.31,0,0,1,0,.42l-.09.06-6.37,2.8a.28.28,0,0,0-.15.38.25.25,0,0,0,.15.15l6.37,2.8a.29.29,0,0,1,.14.39.22.22,0,0,1-.05.08l-1.77,1.77Z"/></g><g id="g2220"><path id="path2216" class="cls-2" d="M281.28,291.41l5.1-5.1a.28.28,0,0,0,0-.41h0l-5.1-5.1"/><path id="path2218" class="cls-2" d="M281.28,280.79l-1.77,1.76a.3.3,0,0,0,0,.42l.08,0,6.38,2.8a.3.3,0,0,1,0,.54l-6.37,2.79a.31.31,0,0,0-.15.4l.06.08,1.76,1.76Z"/></g><g id="g2226"><path id="path2222" class="cls-2" d="M287.93,298.07,293,293a.31.31,0,0,1,.42,0h0l5.1,5.11"/><path id="path2224" class="cls-2" d="M298.55,298.07l-1.76,1.76a.3.3,0,0,1-.42,0l-.06-.09-2.8-6.37a.28.28,0,0,0-.38-.15.28.28,0,0,0-.15.15l-2.8,6.37a.3.3,0,0,1-.39.14l-.08-.05-1.77-1.77Z"/></g><g id="g2232"><path id="path2228" class="cls-2" d="M80.43,274l5.1,5.1a.28.28,0,0,0,.41,0h0l5.1-5.1"/><path id="path2230" class="cls-2" d="M91.05,274l-1.77-1.77a.29.29,0,0,0-.41,0,.16.16,0,0,0-.06.08L86,278.67a.31.31,0,0,1-.39.15.36.36,0,0,1-.15-.15l-2.79-6.37a.29.29,0,0,0-.39-.15l-.09.06L80.44,274Z"/></g><g id="g2238"><path id="path2234" class="cls-2" d="M97.46,291l-5.11-5.1a.31.31,0,0,1,0-.42l5.11-5.1"/><path id="path2236" class="cls-2" d="M97.46,280.38l1.77,1.77a.29.29,0,0,1,0,.41.16.16,0,0,1-.08.06l-6.38,2.8a.31.31,0,0,0-.15.39.36.36,0,0,0,.15.15l6.37,2.79a.29.29,0,0,1,.15.39.24.24,0,0,1-.06.09L97.46,291Z"/></g><g id="g2244"><path id="path2240" class="cls-2" d="M73.85,291.18,79,286.07a.3.3,0,0,0,0-.41h0l-5.11-5.11"/><path id="path2242" class="cls-2" d="M73.85,280.54l-1.76,1.77a.3.3,0,0,0,0,.41l.09.06,6.37,2.8a.29.29,0,0,1,.15.39.31.31,0,0,1-.15.15l-6.36,2.79a.29.29,0,0,0-.15.39.24.24,0,0,0,.06.08l1.76,1.77Z"/></g><g id="g2250"><path id="path2246" class="cls-2" d="M80.51,297.82l5.11-5.1a.28.28,0,0,1,.41,0l5.1,5.1"/><path id="path2248" class="cls-2" d="M91.13,297.82l-1.77,1.77a.29.29,0,0,1-.41,0l-.06-.08-2.8-6.38a.3.3,0,0,0-.39-.15.31.31,0,0,0-.15.15l-2.79,6.37a.3.3,0,0,1-.39.15l-.09-.06-1.77-1.77Z"/></g><g id="g2256"><path id="path2252" class="cls-2" d="M73.43,82.32h7.22a.29.29,0,0,0,.29-.29V74.81"/><path id="path2254" class="cls-2" d="M80.94,74.81h-2.5a.29.29,0,0,0-.29.3.36.36,0,0,0,0,.1L80.7,81.7a.3.3,0,0,1-.17.38.26.26,0,0,1-.21,0l-6.48-2.53a.3.3,0,0,0-.38.17.36.36,0,0,0,0,.11v2.49Z"/></g><g id="g2262"><path id="path2258" class="cls-2" d="M97.52,82.32H90.31A.29.29,0,0,1,90,82V74.81"/><path id="path2260" class="cls-2" d="M90,74.81h2.5a.29.29,0,0,1,.29.3.36.36,0,0,1,0,.1L90.25,81.7a.3.3,0,0,0,.17.38.26.26,0,0,0,.21,0l6.48-2.53a.3.3,0,0,1,.38.17.2.2,0,0,1,0,.11v2.49Z"/></g><g id="g2268"><path id="path2264" class="cls-2" d="M80.94,99.13V91.91a.29.29,0,0,0-.29-.29H73.43"/><path id="path2266" class="cls-2" d="M73.43,91.62v2.5a.29.29,0,0,0,.3.29l.1,0,6.49-2.53a.3.3,0,0,1,.38.17.26.26,0,0,1,0,.21l-2.53,6.48a.3.3,0,0,0,.17.38l.1,0h2.5Z"/></g><g id="g2274"><path id="path2270" class="cls-2" d="M90.36,99.14V91.92a.29.29,0,0,1,.28-.3h7.23"/><path id="path2272" class="cls-2" d="M97.87,91.62v2.5a.3.3,0,0,1-.3.29.18.18,0,0,1-.1,0L91,91.87a.29.29,0,0,0-.38.16.28.28,0,0,0,0,.22l2.52,6.48a.29.29,0,0,1-.16.38l-.11,0H90.36Z"/></g><g id="g2280"><path id="path2276" class="cls-2" d="M276.72,82.32h7.21a.29.29,0,0,0,.3-.29V74.81"/><path id="path2278" class="cls-2" d="M284.22,74.81h-2.49a.3.3,0,0,0-.3.3.36.36,0,0,0,0,.1L284,81.7a.3.3,0,0,1-.17.38.26.26,0,0,1-.21,0l-6.48-2.53a.3.3,0,0,0-.38.17.2.2,0,0,0,0,.11v2.49Z"/></g><g id="g2286"><path id="path2282" class="cls-2" d="M300.8,82.32h-7.22a.29.29,0,0,1-.29-.29V74.81"/><path id="path2284" class="cls-2" d="M293.3,74.81h2.49a.29.29,0,0,1,.3.3.36.36,0,0,1,0,.1l-2.53,6.49a.3.3,0,0,0,.17.38.26.26,0,0,0,.21,0l6.48-2.53a.3.3,0,0,1,.38.17.36.36,0,0,1,0,.11v2.49Z"/></g><g id="g2292"><path id="path2288" class="cls-2" d="M284.22,99.13V91.91a.29.29,0,0,0-.29-.29h-7.22"/><path id="path2290" class="cls-2" d="M276.72,91.62v2.5a.29.29,0,0,0,.29.29l.11,0,6.48-2.53A.3.3,0,0,1,284,92a.38.38,0,0,1,0,.21l-2.53,6.48a.29.29,0,0,0,.17.38l.1,0h2.49Z"/></g><g id="g2298"><path id="path2294" class="cls-2" d="M293.64,99.14V91.92a.3.3,0,0,1,.29-.3h7.22"/><path id="path2296" class="cls-2" d="M301.15,91.62v2.5a.29.29,0,0,1-.29.29.22.22,0,0,1-.11,0l-6.49-2.52a.29.29,0,0,0-.38.16.41.41,0,0,0,0,.22l2.53,6.48a.3.3,0,0,1-.17.38l-.1,0h-2.5Z"/></g></g></g></g><ellipse id="ellipse2305" class="cls-3" cx="187.57" cy="174.14" rx="15.18" ry="13.15"/><ellipse id="ellipse2307" class="cls-3" cx="192.98" cy="175.29" rx="13.15" ry="15.18" transform="translate(-45.65 280.29) rotate(-66)"/><ellipse id="ellipse2309" class="cls-3" cx="197.45" cy="178.54" rx="13.15" ry="15.18" transform="translate(-68.75 177.98) rotate(-42)"/><ellipse id="ellipse2311" class="cls-3" cx="200.22" cy="183.33" rx="13.15" ry="15.18" transform="translate(-46.85 70.85) rotate(-18)"/><ellipse id="ellipse2313" class="cls-3" cx="200.8" cy="188.84" rx="15.18" ry="13.15" transform="translate(-7.99 368.8) rotate(-84)"/><ellipse id="ellipse2315" class="cls-3" cx="200.45" cy="191.69" rx="15.23" ry="13.2" transform="translate(-65.62 269.97) rotate(-60.11)"/><ellipse id="ellipse2317" class="cls-3" cx="195.39" cy="198.21" rx="15.18" ry="13.15" transform="translate(-79.19 152.7) rotate(-36)"/><ellipse id="ellipse2319" class="cls-3" cx="190.33" cy="200.46" rx="15.18" ry="13.15" transform="translate(-37.52 43.95) rotate(-12)"/><ellipse id="ellipse2321" class="cls-3" cx="184.8" cy="200.46" rx="13.15" ry="15.18" transform="matrix(0.21, -0.98, 0.98, 0.21, -49.7, 339.55)"/><ellipse id="ellipse2323" class="cls-3" cx="179.75" cy="198.21" rx="13.15" ry="15.18" transform="translate(-86.26 227.12) rotate(-54)"/><ellipse id="ellipse2325" class="cls-3" cx="176.05" cy="194.1" rx="13.15" ry="15.18" transform="translate(-73.46 114.03) rotate(-30)"/><ellipse id="ellipse2327" class="cls-3" cx="174.34" cy="188.84" rx="13.15" ry="15.18" transform="translate(-18.78 19.26) rotate(-6)"/><ellipse id="ellipse2329" class="cls-3" cx="174.91" cy="183.34" rx="15.18" ry="13.15" transform="translate(-53.5 293.04) rotate(-72)"/><ellipse id="ellipse2331" class="cls-3" cx="177.68" cy="178.54" rx="15.18" ry="13.15" transform="translate(-73.89 191.11) rotate(-48)"/><ellipse id="ellipse2333" class="cls-3" cx="182.16" cy="175.29" rx="15.18" ry="13.15" transform="translate(-55.55 89.25) rotate(-24)"/><ellipse id="ellipse2335" class="cls-3" cx="187.57" cy="174.14" rx="15.18" ry="13.15"/><g id="g2371"><ellipse id="ellipse2339" class="cls-3" cx="233.55" cy="180.1" rx="8.28" ry="7.17"/><ellipse id="ellipse2341" class="cls-3" cx="236.52" cy="180.73" rx="7.17" ry="8.28" transform="translate(-24.79 323.29) rotate(-66)"/><ellipse id="ellipse2343" class="cls-3" cx="238.97" cy="182.51" rx="7.17" ry="8.28" transform="translate(-60.74 206.78) rotate(-42)"/><ellipse id="ellipse2345" class="cls-3" cx="240.48" cy="185.13" rx="7.17" ry="8.28" transform="translate(-45.44 83.37) rotate(-18)"/><ellipse id="ellipse2347" class="cls-3" cx="240.8" cy="188.15" rx="8.28" ry="7.17" transform="translate(28.52 407.96) rotate(-84)"/><ellipse id="ellipse2349" class="cls-3" cx="239.87" cy="191.03" rx="8.28" ry="7.17" transform="translate(-45.5 303.24) rotate(-60)"/><ellipse id="ellipse2351" class="cls-3" cx="238.92" cy="192.42" rx="8.29" ry="7.19" transform="translate(-67.49 177.55) rotate(-36.07)"/><ellipse id="ellipse2353" class="cls-3" cx="235.07" cy="194.51" rx="8.28" ry="7.17" transform="translate(-35.3 53.12) rotate(-12)"/><ellipse id="ellipse2355" class="cls-3" cx="232.04" cy="194.51" rx="7.17" ry="8.28" transform="translate(-6.47 381.04) rotate(-78)"/><ellipse id="ellipse2357" class="cls-3" cx="229.27" cy="193.28" rx="7.17" ry="8.28" transform="translate(-61.86 265.16) rotate(-54)"/><ellipse id="ellipse2359" class="cls-3" cx="227.24" cy="191.03" rx="7.17" ry="8.28" transform="translate(-65.07 139.21) rotate(-30)"/><ellipse id="ellipse2361" class="cls-3" cx="226.31" cy="188.15" rx="7.17" ry="8.28" transform="translate(-18.43 24.69) rotate(-6)"/><ellipse id="ellipse2363" class="cls-3" cx="226.62" cy="185.14" rx="8.28" ry="7.17" transform="translate(-19.48 343.46) rotate(-72)"/><ellipse id="ellipse2365" class="cls-3" cx="228.14" cy="182.51" rx="8.28" ry="7.17" transform="translate(-60.15 229.92) rotate(-48)"/><ellipse id="ellipse2367" class="cls-3" cx="230.59" cy="180.73" rx="8.28" ry="7.17" transform="translate(-53.57 109.41) rotate(-24)"/><ellipse id="ellipse2369" class="cls-3" cx="233.55" cy="180.1" rx="8.28" ry="7.17"/></g><g id="g2405"><ellipse id="ellipse2373" class="cls-3" cx="268.67" cy="180.1" rx="8.28" ry="7.17"/><ellipse id="ellipse2375" class="cls-3" cx="271.64" cy="180.72" rx="7.17" ry="8.28" transform="translate(-3.95 355.37) rotate(-66)"/><ellipse id="ellipse2377" class="cls-3" cx="274.09" cy="182.51" rx="7.17" ry="8.28" transform="translate(-51.72 230.28) rotate(-42)"/><ellipse id="ellipse2379" class="cls-3" cx="275.28" cy="184.33" rx="7.17" ry="8.27" transform="translate(-43.6 94.49) rotate(-18.07)"/><ellipse id="ellipse2381" class="cls-3" cx="275.92" cy="188.15" rx="8.28" ry="7.17" transform="translate(59.96 442.89) rotate(-84)"/><ellipse id="ellipse2383" class="cls-3" cx="274.99" cy="191.03" rx="8.28" ry="7.17" transform="translate(-27.94 333.66) rotate(-60)"/><ellipse id="ellipse2385" class="cls-3" cx="272.96" cy="193.28" rx="8.28" ry="7.17" transform="translate(-61.48 197.35) rotate(-36)"/><ellipse id="ellipse2387" class="cls-3" cx="270.19" cy="194.51" rx="8.28" ry="7.17" transform="translate(-34.54 60.43) rotate(-12)"/><ellipse id="ellipse2389" class="cls-3" cx="267.16" cy="194.52" rx="7.17" ry="8.28" transform="translate(21.35 415.39) rotate(-78)"/><ellipse id="ellipse2391" class="cls-3" cx="264.39" cy="193.28" rx="7.17" ry="8.28" transform="translate(-47.38 293.57) rotate(-54)"/><ellipse id="ellipse2393" class="cls-3" cx="262.36" cy="191.03" rx="7.17" ry="8.28" transform="translate(-60.37 156.77) rotate(-30)"/><ellipse id="ellipse2395" class="cls-3" cx="261.42" cy="188.15" rx="7.17" ry="8.28" transform="translate(-18.23 28.36) rotate(-6)"/><ellipse id="ellipse2397" class="cls-3" cx="261.74" cy="185.13" rx="8.28" ry="7.17" transform="translate(4.79 376.86) rotate(-72)"/><ellipse id="ellipse2399" class="cls-3" cx="263.26" cy="182.51" rx="8.28" ry="7.17" transform="translate(-48.53 256.02) rotate(-48)"/><ellipse id="ellipse2401" class="cls-3" cx="265.71" cy="180.73" rx="8.28" ry="7.17" transform="translate(-50.54 123.7) rotate(-24)"/><ellipse id="ellipse2403" class="cls-3" cx="268.67" cy="180.1" rx="8.28" ry="7.17"/></g><g id="g2439"><ellipse id="ellipse2407" class="cls-3" cx="303.79" cy="180.1" rx="8.28" ry="7.17"/><ellipse id="ellipse2409" class="cls-3" cx="306.76" cy="180.73" rx="7.17" ry="8.28" transform="translate(16.89 387.46) rotate(-66)"/><ellipse id="ellipse2411" class="cls-3" cx="309.21" cy="182.51" rx="7.17" ry="8.28" transform="translate(-42.7 253.78) rotate(-42)"/><ellipse id="ellipse2413" class="cls-3" cx="310.73" cy="185.13" rx="7.17" ry="8.28" transform="translate(-42 105.08) rotate(-18)"/><ellipse id="ellipse2415" class="cls-3" cx="311.04" cy="188.15" rx="8.28" ry="7.17" transform="translate(91.41 477.82) rotate(-84)"/><ellipse id="ellipse2417" class="cls-3" cx="310.11" cy="191.03" rx="8.28" ry="7.17" transform="translate(-10.38 364.07) rotate(-60)"/><ellipse id="ellipse2419" class="cls-3" cx="309.23" cy="192.27" rx="8.29" ry="7.19" transform="translate(-53.92 218.92) rotate(-36.07)"/><ellipse id="ellipse2421" class="cls-3" cx="305.31" cy="194.51" rx="8.28" ry="7.17" transform="translate(-33.77 67.73) rotate(-12)"/><ellipse id="ellipse2423" class="cls-3" cx="302.28" cy="194.51" rx="7.17" ry="8.28" transform="translate(49.17 449.74) rotate(-78)"/><ellipse id="ellipse2425" class="cls-3" cx="299.51" cy="193.28" rx="7.17" ry="8.28" transform="translate(-32.91 321.98) rotate(-54)"/><ellipse id="ellipse2427" class="cls-3" cx="299.73" cy="192.07" rx="7.19" ry="8.3" transform="translate(-55.85 174.89) rotate(-29.89)"/><ellipse id="ellipse2429" class="cls-3" cx="296.54" cy="188.15" rx="7.17" ry="8.28" transform="translate(-18.04 32.03) rotate(-6)"/><ellipse id="ellipse2431" class="cls-3" cx="296.86" cy="185.13" rx="8.28" ry="7.17" transform="translate(29.05 410.26) rotate(-72)"/><ellipse id="ellipse2433" class="cls-3" cx="298.38" cy="182.51" rx="8.28" ry="7.17" transform="translate(-36.91 282.12) rotate(-48)"/><ellipse id="ellipse2435" class="cls-3" cx="300.83" cy="180.72" rx="8.28" ry="7.17" transform="translate(-47.5 137.98) rotate(-24)"/><ellipse id="ellipse2437" class="cls-3" cx="303.79" cy="180.1" rx="8.28" ry="7.17"/></g><g id="g2473"><ellipse id="ellipse2441" class="cls-3" cx="71.86" cy="180.14" rx="8.28" ry="7.17"/><ellipse id="ellipse2443" class="cls-3" cx="74.83" cy="180.76" rx="7.17" ry="8.28" transform="translate(-120.74 175.6) rotate(-66)"/><ellipse id="ellipse2445" class="cls-3" cx="77.28" cy="182.55" rx="7.17" ry="8.28" transform="translate(-102.3 98.6) rotate(-42)"/><ellipse id="ellipse2447" class="cls-3" cx="78.8" cy="185.17" rx="7.17" ry="8.28" transform="translate(-53.36 33.41) rotate(-18)"/><ellipse id="ellipse2449" class="cls-3" cx="79.11" cy="188.19" rx="8.28" ry="7.17" transform="translate(-116.31 247.2) rotate(-84)"/><ellipse id="ellipse2451" class="cls-3" cx="78.18" cy="191.07" rx="8.28" ry="7.17" transform="translate(-126.38 163.24) rotate(-60)"/><ellipse id="ellipse2453" class="cls-3" cx="76.15" cy="193.32" rx="8.28" ry="7.17" transform="translate(-99.09 81.68) rotate(-36)"/><ellipse id="ellipse2455" class="cls-3" cx="73.38" cy="194.55" rx="8.28" ry="7.17" transform="translate(-38.85 19.51) rotate(-12)"/><ellipse id="ellipse2457" class="cls-3" cx="70.35" cy="194.55" rx="7.17" ry="8.28" transform="translate(-134.58 222.92) rotate(-78)"/><ellipse id="ellipse2459" class="cls-3" cx="67.58" cy="193.32" rx="7.17" ry="8.28" transform="translate(-128.54 134.36) rotate(-54)"/><ellipse id="ellipse2461" class="cls-3" cx="65.55" cy="191.07" rx="7.17" ry="8.28" transform="translate(-86.75 58.38) rotate(-30)"/><ellipse id="ellipse2463" class="cls-3" cx="64.62" cy="188.19" rx="7.17" ry="8.28" transform="translate(-19.32 7.79) rotate(-6)"/><ellipse id="ellipse2465" class="cls-3" cx="64.93" cy="185.17" rx="8.28" ry="7.17" transform="translate(-131.24 189.71) rotate(-72)"/><ellipse id="ellipse2467" class="cls-3" cx="66.45" cy="182.55" rx="8.28" ry="7.17" transform="translate(-113.67 109.78) rotate(-48)"/><ellipse id="ellipse2469" class="cls-3" cx="68.9" cy="180.76" rx="8.28" ry="7.17" transform="translate(-67.57 43.65) rotate(-24)"/><ellipse id="ellipse2471" class="cls-3" cx="71.86" cy="180.14" rx="8.28" ry="7.17"/></g><g id="g2507"><ellipse id="ellipse2475" class="cls-3" cx="106.99" cy="180.14" rx="8.28" ry="7.17"/><ellipse id="ellipse2477" class="cls-3" cx="109.95" cy="180.77" rx="7.17" ry="8.28" transform="translate(-99.91 207.69) rotate(-66)"/><ellipse id="ellipse2479" class="cls-3" cx="112.4" cy="182.55" rx="7.17" ry="8.28" transform="translate(-93.28 122.1) rotate(-42)"/><ellipse id="ellipse2481" class="cls-3" cx="113.92" cy="185.17" rx="7.17" ry="8.28" transform="translate(-51.65 44.27) rotate(-18)"/><ellipse id="ellipse2483" class="cls-3" cx="114.23" cy="188.19" rx="8.28" ry="7.17" transform="translate(-84.86 282.12) rotate(-84)"/><ellipse id="ellipse2485" class="cls-3" cx="113.3" cy="191.07" rx="8.28" ry="7.17" transform="translate(-108.82 193.65) rotate(-60)"/><ellipse id="ellipse2487" class="cls-3" cx="111.27" cy="193.32" rx="8.28" ry="7.17" transform="translate(-92.38 102.32) rotate(-36)"/><ellipse id="ellipse2489" class="cls-3" cx="108.5" cy="194.55" rx="8.28" ry="7.17" transform="translate(-38.08 26.81) rotate(-12)"/><ellipse id="ellipse2491" class="cls-3" cx="105.47" cy="194.55" rx="7.17" ry="8.28" transform="translate(-106.76 257.27) rotate(-78)"/><ellipse id="ellipse2493" class="cls-3" cx="102.7" cy="193.32" rx="7.17" ry="8.28" transform="translate(-114.06 162.78) rotate(-54)"/><ellipse id="ellipse2495" class="cls-3" cx="100.67" cy="191.07" rx="7.17" ry="8.28" transform="translate(-82.05 75.94) rotate(-30)"/><ellipse id="ellipse2497" class="cls-3" cx="96.89" cy="188.7" rx="7.13" ry="8.24" transform="translate(-18.47 10.69) rotate(-5.77)"/><ellipse id="ellipse2499" class="cls-3" cx="100.05" cy="185.17" rx="8.28" ry="7.17" transform="translate(-106.97 223.11) rotate(-72)"/><ellipse id="ellipse2501" class="cls-3" cx="101.57" cy="182.55" rx="8.28" ry="7.17" transform="translate(-102.05 135.88) rotate(-48)"/><ellipse id="ellipse2503" class="cls-3" cx="104.02" cy="180.76" rx="8.28" ry="7.17" transform="translate(-64.53 57.94) rotate(-24)"/><ellipse id="ellipse2505" class="cls-3" cx="106.99" cy="180.14" rx="8.28" ry="7.17"/></g><g id="g2541"><ellipse id="ellipse2509" class="cls-3" cx="142.11" cy="180.14" rx="8.28" ry="7.17"/><ellipse id="ellipse2511" class="cls-3" cx="145.07" cy="180.77" rx="7.17" ry="8.28" transform="translate(-79.07 239.77) rotate(-66)"/><ellipse id="ellipse2513" class="cls-3" cx="147.52" cy="182.55" rx="7.17" ry="8.28" transform="translate(-84.26 145.6) rotate(-42)"/><ellipse id="ellipse2515" class="cls-3" cx="149.04" cy="185.17" rx="7.17" ry="8.28" transform="translate(-49.93 55.12) rotate(-18)"/><ellipse id="ellipse2517" class="cls-3" cx="149.35" cy="188.19" rx="8.28" ry="7.17" transform="translate(-53.41 317.05) rotate(-84)"/><ellipse id="ellipse2519" class="cls-3" cx="148.42" cy="191.07" rx="8.28" ry="7.17" transform="translate(-91.26 224.07) rotate(-60)"/><ellipse id="ellipse2521" class="cls-3" cx="146.39" cy="193.32" rx="8.28" ry="7.17" transform="translate(-85.67 122.97) rotate(-36)"/><ellipse id="ellipse2523" class="cls-3" cx="143.62" cy="194.55" rx="8.28" ry="7.17" transform="translate(-37.31 34.11) rotate(-12)"/><ellipse id="ellipse2525" class="cls-3" cx="140.59" cy="194.56" rx="7.17" ry="8.28" transform="translate(-78.94 291.62) rotate(-78)"/><ellipse id="ellipse2527" class="cls-3" cx="137.82" cy="193.32" rx="7.17" ry="8.28" transform="translate(-99.59 191.19) rotate(-54)"/><ellipse id="ellipse2529" class="cls-3" cx="135.79" cy="191.07" rx="7.17" ry="8.28" transform="translate(-77.34 93.49) rotate(-30)"/><ellipse id="ellipse2531" class="cls-3" cx="134.86" cy="188.19" rx="7.17" ry="8.28" transform="translate(-18.93 15.13) rotate(-6)"/><ellipse id="ellipse2533" class="cls-3" cx="135.17" cy="185.17" rx="8.28" ry="7.17" transform="translate(-82.71 256.51) rotate(-72)"/><ellipse id="ellipse2535" class="cls-3" cx="136.69" cy="182.55" rx="8.28" ry="7.17" transform="translate(-90.43 161.98) rotate(-48)"/><ellipse id="ellipse2537" class="cls-3" cx="139.14" cy="180.77" rx="8.28" ry="7.17" transform="translate(-61.5 72.22) rotate(-24)"/><ellipse id="ellipse2539" class="cls-3" cx="142.11" cy="180.14" rx="8.28" ry="7.17"/></g><g id="g2575"><ellipse id="ellipse2543" class="cls-3" cx="187.59" cy="226.98" rx="8.01" ry="6.78"/><ellipse id="ellipse2545" class="cls-3" cx="190.4" cy="227.57" rx="6.78" ry="8.01" transform="translate(-94.94 308.95) rotate(-66)"/><ellipse id="ellipse2547" class="cls-3" cx="192.72" cy="229.26" rx="6.78" ry="8.01" transform="translate(-103.9 187.84) rotate(-42)"/><ellipse id="ellipse2549" class="cls-3" cx="194.15" cy="231.74" rx="6.78" ry="8.01" transform="matrix(0.95, -0.31, 0.31, 0.95, -62.11, 71.34)"/><ellipse id="ellipse2551" class="cls-3" cx="194.45" cy="234.59" rx="8.01" ry="6.78" transform="translate(-59.18 403.46) rotate(-84)"/><ellipse id="ellipse2553" class="cls-3" cx="193.57" cy="237.32" rx="8.01" ry="6.78" transform="translate(-108.74 286.29) rotate(-60)"/><ellipse id="ellipse2555" class="cls-3" cx="191.65" cy="239.45" rx="8.01" ry="6.78" transform="translate(-104.15 158.38) rotate(-36)"/><ellipse id="ellipse2557" class="cls-3" cx="189.03" cy="240.62" rx="8.01" ry="6.78" transform="translate(-45.9 44.56) rotate(-12)"/><ellipse id="ellipse2559" class="cls-3" cx="186.16" cy="240.62" rx="6.78" ry="8.01" transform="translate(-87.91 372.68) rotate(-78)"/><ellipse id="ellipse2561" class="cls-3" cx="183.54" cy="239.45" rx="6.78" ry="8.01" transform="translate(-118.06 247.19) rotate(-54)"/><ellipse id="ellipse2563" class="cls-3" cx="181.62" cy="237.32" rx="6.78" ry="8.01" transform="translate(-94.33 122.61) rotate(-30)"/><ellipse id="ellipse2565" class="cls-3" cx="180.73" cy="234.59" rx="6.78" ry="8.01" transform="translate(-23.53 20.18) rotate(-6)"/><ellipse id="ellipse2567" class="cls-3" cx="181.03" cy="231.74" rx="8.01" ry="6.78" transform="translate(-95.31 332.3) rotate(-72)"/><ellipse id="ellipse2569" class="cls-3" cx="182.47" cy="229.26" rx="8.01" ry="6.78" transform="translate(-110 211.45) rotate(-48)"/><ellipse id="ellipse2571" class="cls-3" cx="184.79" cy="227.57" rx="8.01" ry="6.78" transform="translate(-76.59 94.83) rotate(-24)"/><ellipse id="ellipse2573" class="cls-3" cx="187.59" cy="226.98" rx="8.01" ry="6.78"/></g><g id="g2609"><ellipse id="ellipse2577" class="cls-3" cx="187.59" cy="262.44" rx="8.01" ry="6.78"/><ellipse id="ellipse2579" class="cls-3" cx="190.4" cy="263.03" rx="6.78" ry="8.01" transform="translate(-127.34 329.98) rotate(-66)"/><ellipse id="ellipse2581" class="cls-3" cx="192.72" cy="264.72" rx="6.78" ry="8.01" transform="translate(-127.63 196.95) rotate(-42)"/><ellipse id="ellipse2583" class="cls-3" cx="194.15" cy="267.2" rx="6.78" ry="8.01" transform="matrix(0.95, -0.31, 0.31, 0.95, -73.07, 73.07)"/><ellipse id="ellipse2585" class="cls-3" cx="194.45" cy="270.05" rx="8.01" ry="6.78" transform="translate(-94.45 435.21) rotate(-84)"/><ellipse id="ellipse2587" class="cls-3" cx="193.56" cy="272.78" rx="8.01" ry="6.78" transform="translate(-139.45 304.02) rotate(-60)"/><ellipse id="ellipse2589" class="cls-3" cx="191.65" cy="274.91" rx="8.01" ry="6.78" transform="translate(-124.99 165.15) rotate(-36)"/><ellipse id="ellipse2591" class="cls-3" cx="189.03" cy="276.08" rx="8.01" ry="6.78" transform="translate(-53.27 45.33) rotate(-12)"/><ellipse id="ellipse2593" class="cls-3" cx="186.16" cy="276.08" rx="6.78" ry="8.01" transform="translate(-122.59 400.77) rotate(-78)"/><ellipse id="ellipse2595" class="cls-3" cx="183.54" cy="274.91" rx="6.78" ry="8.01" transform="translate(-146.75 261.81) rotate(-54)"/><ellipse id="ellipse2597" class="cls-3" cx="183.42" cy="274.15" rx="6.8" ry="8.04" transform="translate(-112.21 127.85) rotate(-29.89)"/><ellipse id="ellipse2599" class="cls-3" cx="180.73" cy="270.05" rx="6.78" ry="8.01" transform="translate(-27.24 20.37) rotate(-6)"/><ellipse id="ellipse2601" class="cls-3" cx="181.03" cy="267.2" rx="8.01" ry="6.78" transform="translate(-129.03 356.81) rotate(-72)"/><ellipse id="ellipse2603" class="cls-3" cx="182.47" cy="264.72" rx="8.01" ry="6.78" transform="translate(-136.35 223.19) rotate(-48)"/><ellipse id="ellipse2605" class="cls-3" cx="184.26" cy="260.36" rx="8" ry="6.76" transform="translate(-90.69 98.67) rotate(-24.25)"/><ellipse id="ellipse2607" class="cls-3" cx="187.59" cy="262.44" rx="8.01" ry="6.78"/></g><g id="g2643"><ellipse id="ellipse2611" class="cls-3" cx="187.59" cy="297.9" rx="8.01" ry="6.78"/><ellipse id="ellipse2613" class="cls-3" cx="190.4" cy="298.49" rx="6.78" ry="8.01" transform="translate(-159.73 351.02) rotate(-66)"/><ellipse id="ellipse2615" class="cls-3" cx="192.72" cy="300.18" rx="6.78" ry="8.01" transform="translate(-151.36 206.06) rotate(-42)"/><ellipse id="ellipse2617" class="cls-3" cx="194.15" cy="302.66" rx="6.78" ry="8.01" transform="translate(-84.02 74.81) rotate(-18)"/><ellipse id="ellipse2619" class="cls-3" cx="194.45" cy="305.51" rx="8.01" ry="6.78" transform="translate(-129.71 466.96) rotate(-84)"/><ellipse id="ellipse2621" class="cls-3" cx="193.57" cy="308.24" rx="8.01" ry="6.78" transform="translate(-170.16 321.75) rotate(-60)"/><ellipse id="ellipse2623" class="cls-3" cx="191.65" cy="310.37" rx="8.01" ry="6.78" transform="translate(-145.83 171.92) rotate(-36)"/><ellipse id="ellipse2625" class="cls-3" cx="189.03" cy="311.54" rx="8.01" ry="6.78" transform="translate(-60.64 46.11) rotate(-12)"/><ellipse id="ellipse2627" class="cls-3" cx="186.16" cy="311.54" rx="6.78" ry="8.01" transform="translate(-157.28 428.86) rotate(-78)"/><ellipse id="ellipse2629" class="cls-3" cx="183.54" cy="310.37" rx="6.78" ry="8.01" transform="translate(-175.44 276.42) rotate(-54)"/><ellipse id="ellipse2631" class="cls-3" cx="181.62" cy="308.24" rx="6.78" ry="8.01" transform="translate(-129.79 132.11) rotate(-30)"/><ellipse id="ellipse2633" class="cls-3" cx="180.73" cy="305.51" rx="6.78" ry="8.01" transform="translate(-30.94 20.57) rotate(-6)"/><ellipse id="ellipse2635" class="cls-3" cx="181.03" cy="302.66" rx="8.01" ry="6.78" transform="translate(-162.76 381.31) rotate(-72)"/><ellipse id="ellipse2637" class="cls-3" cx="182.47" cy="300.18" rx="8.01" ry="6.78" transform="translate(-162.7 234.92) rotate(-48)"/><ellipse id="ellipse2639" class="cls-3" cx="184.79" cy="298.49" rx="8.01" ry="6.78" transform="translate(-105.43 100.97) rotate(-24)"/><ellipse id="ellipse2641" class="cls-3" cx="187.59" cy="297.9" rx="8.01" ry="6.78"/></g><g id="g2677"><ellipse id="ellipse2645" class="cls-3" cx="187.59" cy="63.1" rx="8.01" ry="6.78"/><ellipse id="ellipse2647" class="cls-3" cx="190.4" cy="63.7" rx="6.78" ry="8.01" transform="translate(54.76 211.73) rotate(-66)"/><ellipse id="ellipse2649" class="cls-3" cx="192.72" cy="65.39" rx="6.78" ry="8.01" transform="translate(5.75 145.75) rotate(-42)"/><ellipse id="ellipse2651" class="cls-3" cx="194.15" cy="67.87" rx="6.78" ry="8.01" transform="translate(-11.47 63.32) rotate(-18)"/><ellipse id="ellipse2653" class="cls-3" cx="194.45" cy="70.72" rx="8.01" ry="6.78" transform="translate(103.79 256.71) rotate(-84)"/><ellipse id="ellipse2655" class="cls-3" cx="193.56" cy="73.45" rx="8.01" ry="6.78" transform="translate(33.17 204.36) rotate(-60)"/><ellipse id="ellipse2657" class="cls-3" cx="191.65" cy="75.58" rx="8.01" ry="6.78" transform="translate(-7.82 127.08) rotate(-36)"/><ellipse id="ellipse2659" class="cls-3" cx="189.03" cy="76.74" rx="8.01" ry="6.78" transform="translate(-11.83 40.98) rotate(-12)"/><ellipse id="ellipse2661" class="cls-3" cx="186.16" cy="76.75" rx="6.78" ry="8.01" transform="translate(72.39 242.88) rotate(-78)"/><ellipse id="ellipse2663" class="cls-3" cx="183.54" cy="75.58" rx="6.78" ry="8.01" transform="translate(14.51 179.64) rotate(-54)"/><ellipse id="ellipse2665" class="cls-3" cx="181.62" cy="73.45" rx="6.78" ry="8.01" transform="translate(-12.39 100.65) rotate(-30)"/><ellipse id="ellipse2667" class="cls-3" cx="180.73" cy="70.72" rx="6.78" ry="8.01" transform="translate(-6.4 19.28) rotate(-6)"/><ellipse id="ellipse2669" class="cls-3" cx="181.03" cy="67.87" rx="8.01" ry="6.78" transform="translate(60.54 219.07) rotate(-72)"/><ellipse id="ellipse2671" class="cls-3" cx="182.47" cy="65.38" rx="8.01" ry="6.78" transform="translate(11.78 157.23) rotate(-48)"/><ellipse id="ellipse2673" class="cls-3" cx="184.79" cy="63.7" rx="8.01" ry="6.78" transform="translate(-9.93 80.67) rotate(-24)"/><ellipse id="ellipse2675" class="cls-3" cx="187.59" cy="63.1" rx="8.01" ry="6.78"/></g><g id="g2711"><ellipse id="ellipse2679" class="cls-3" cx="187.59" cy="98.56" rx="8.01" ry="6.78"/><ellipse id="ellipse2681" class="cls-3" cx="190.4" cy="99.16" rx="6.78" ry="8.01" transform="translate(22.37 232.77) rotate(-66)"/><ellipse id="ellipse2683" class="cls-3" cx="192.72" cy="100.84" rx="6.78" ry="8.01" transform="translate(-17.98 154.86) rotate(-42)"/><ellipse id="ellipse2685" class="cls-3" cx="194.15" cy="103.33" rx="6.78" ry="8.01" transform="translate(-22.43 65.05) rotate(-18)"/><ellipse id="ellipse2687" class="cls-3" cx="194.45" cy="106.18" rx="8.01" ry="6.78" transform="translate(68.53 288.47) rotate(-84)"/><ellipse id="ellipse2689" class="cls-3" cx="193.57" cy="108.91" rx="8.01" ry="6.78" transform="translate(2.47 222.09) rotate(-60)"/><ellipse id="ellipse2691" class="cls-3" cx="191.65" cy="111.04" rx="8.01" ry="6.78" transform="translate(-28.67 133.85) rotate(-36)"/><ellipse id="ellipse2693" class="cls-3" cx="189.03" cy="112.2" rx="8.01" ry="6.78" transform="translate(-19.2 41.75) rotate(-12)"/><ellipse id="ellipse2695" class="cls-3" cx="186.16" cy="112.21" rx="6.78" ry="8.01" transform="matrix(0.21, -0.98, 0.98, 0.21, 37.7, 270.97)"/><ellipse id="ellipse2697" class="cls-3" cx="183.54" cy="111.04" rx="6.78" ry="8.01" transform="translate(-14.18 194.26) rotate(-54)"/><ellipse id="ellipse2699" class="cls-3" cx="181.62" cy="108.91" rx="6.78" ry="8.01" transform="translate(-30.12 105.4) rotate(-30)"/><ellipse id="ellipse2701" class="cls-3" cx="180.74" cy="106.18" rx="6.78" ry="8.01" transform="translate(-10.11 19.47) rotate(-6)"/><ellipse id="ellipse2703" class="cls-3" cx="181.04" cy="103.33" rx="8.01" ry="6.78" transform="translate(26.82 243.57) rotate(-72)"/><ellipse id="ellipse2705" class="cls-3" cx="182.47" cy="100.84" rx="8.01" ry="6.78" transform="translate(-14.57 168.97) rotate(-48)"/><ellipse id="ellipse2707" class="cls-3" cx="184.79" cy="99.16" rx="8.01" ry="6.78" transform="translate(-24.36 83.73) rotate(-24)"/><ellipse id="ellipse2709" class="cls-3" cx="187.59" cy="98.56" rx="8.01" ry="6.78"/></g><g id="g2745"><ellipse id="ellipse2713" class="cls-3" cx="187.59" cy="134.02" rx="8.01" ry="6.78"/><ellipse id="ellipse2715" class="cls-3" cx="190.4" cy="134.62" rx="6.78" ry="8.01" transform="translate(-10.03 253.8) rotate(-66)"/><ellipse id="ellipse2717" class="cls-3" cx="192.72" cy="136.3" rx="6.78" ry="8.01" transform="translate(-41.71 163.96) rotate(-42)"/><ellipse id="ellipse2719" class="cls-3" cx="194.15" cy="138.79" rx="6.78" ry="8.01" transform="translate(-33.39 66.79) rotate(-18)"/><ellipse id="ellipse2721" class="cls-3" cx="194.45" cy="141.64" rx="8.01" ry="6.78" transform="translate(33.26 320.22) rotate(-84)"/><ellipse id="ellipse2723" class="cls-3" cx="193.57" cy="144.37" rx="8.01" ry="6.78" transform="translate(-28.24 239.82) rotate(-60)"/><ellipse id="ellipse2725" class="cls-3" cx="191.65" cy="146.5" rx="8.01" ry="6.78" transform="translate(-49.51 140.62) rotate(-36)"/><ellipse id="ellipse2727" class="cls-3" cx="189.03" cy="147.66" rx="8.01" ry="6.78" transform="translate(-26.57 42.53) rotate(-12)"/><ellipse id="ellipse2729" class="cls-3" cx="186.16" cy="147.67" rx="6.78" ry="8.01" transform="translate(3.01 299.05) rotate(-78)"/><ellipse id="ellipse2731" class="cls-3" cx="183.54" cy="146.5" rx="6.78" ry="8.01" transform="translate(-42.86 208.87) rotate(-54)"/><ellipse id="ellipse2733" class="cls-3" cx="181.62" cy="144.37" rx="6.78" ry="8.01" transform="translate(-47.85 110.15) rotate(-30)"/><ellipse id="ellipse2735" class="cls-3" cx="180.73" cy="141.64" rx="6.78" ry="8.01" transform="translate(-13.82 19.67) rotate(-6)"/><ellipse id="ellipse2737" class="cls-3" cx="181.03" cy="138.79" rx="8.01" ry="6.78" transform="translate(-6.91 268.07) rotate(-72)"/><ellipse id="ellipse2739" class="cls-3" cx="182.47" cy="136.3" rx="8.01" ry="6.78" transform="translate(-40.92 180.7) rotate(-48)"/><ellipse id="ellipse2741" class="cls-3" cx="184.79" cy="134.62" rx="8.01" ry="6.78" transform="translate(-38.78 86.8) rotate(-24)"/><ellipse id="ellipse2743" class="cls-3" cx="187.59" cy="134.02" rx="8.01" ry="6.78"/></g></g></g></svg>