<svg xmlns="http://www.w3.org/2000/svg" viewBox="0 0 119.71 121.61"><defs><style>.cls-1{fill:#633f98;}.cls-2{fill:#8b7eba;}.cls-3{fill:#aa68aa;}.cls-4{fill:#9b59a3;}.cls-5{fill:none;}.cls-6{fill:#231f20;}.cls-7{fill:#cd519c;}</style></defs><g id="Layer_2" data-name="Layer 2"><g id="Layer_1-2" data-name="Layer 1"><path class="cls-1" d="M60.64,121.61a59.06,59.06,0,0,1-38.32-14.12,13.32,13.32,0,0,1,8.41-3.21A9.08,9.08,0,0,1,36.07,106a7.8,7.8,0,0,0,4.44,1.5h.22a6.68,6.68,0,0,0,4.32-1.77,19.35,19.35,0,0,1,4.07-2.43A22.6,22.6,0,0,1,58,101.52a23.29,23.29,0,0,1,10.2,2.3A10.34,10.34,0,0,1,71.32,106,6.23,6.23,0,0,0,74,107.7a10.44,10.44,0,0,0,3.58.63,18.88,18.88,0,0,0,5-.89,19.17,19.17,0,0,1,5.16-.92,10.61,10.61,0,0,1,2.69.34,15.23,15.23,0,0,1,5.66,2.89A58.46,58.46,0,0,1,60.64,121.61Z"/><path class="cls-1" d="M74,107.71c-3-1.06-2.18-2.09-5.77-3.88a23.51,23.51,0,0,0-19.11-.53c-4.47,1.94-4.91,4.11-8.39,4.2-4,.1-4.91-2.7-8.92-3.15a13,13,0,0,0-9.48,3.14,59,59,0,0,0,73.81,2.26,15.51,15.51,0,0,0-5.66-2.88C84.19,105.27,80.38,110,74,107.71Z"/><path class="cls-2" d="M96.13,109.76a15.31,15.31,0,0,0-5.65-2.88,10.72,10.72,0,0,0-2.69-.34,19.09,19.09,0,0,0-5.15.91,19,19,0,0,1-5.06.9,10.64,10.64,0,0,1-3.58-.63,6.21,6.21,0,0,1-2.69-1.7,10.52,10.52,0,0,0-3.09-2.19A23.21,23.21,0,0,0,58,101.53a22.52,22.52,0,0,0-8.9,1.78,18.71,18.71,0,0,0-4.07,2.42,6.69,6.69,0,0,1-4.33,1.78h-.22a7.83,7.83,0,0,1-4.45-1.5,9,9,0,0,0-5.33-1.71,13.35,13.35,0,0,0-8.4,3.19,58.61,58.61,0,0,1-6.69-6.68,19.6,19.6,0,0,1,7-6.12c2.5-1.36,4.82-1.85,9.45-2.84A49.76,49.76,0,0,1,37.23,91a14.26,14.26,0,0,0,4.23-1,14.1,14.1,0,0,0,4.95-3.14A6.1,6.1,0,0,1,49.75,85a5.79,5.79,0,0,1,1.08-.1c2,0,3.51,1.17,5.22,2.53a17.73,17.73,0,0,0,7.46,4,12.44,12.44,0,0,0,2.93.37A15.75,15.75,0,0,0,71,91a22.06,22.06,0,0,1,6.54-1c.82,0,1.68,0,2.58.14a16.27,16.27,0,0,1,5.81,1.59,39.88,39.88,0,0,0,7,2.4,61.8,61.8,0,0,0,11.93,1.77,21.31,21.31,0,0,1,4.23.53,58.91,58.91,0,0,1-12.92,13.4h0Z"/><path class="cls-2" d="M80.09,90.08C71.43,89.18,70,93,63.5,91.44c-7.31-1.72-8.7-7.32-13.75-6.4-3.26.59-3.13,3-8.29,5-3.09,1.2-3.88.62-9.34,1.78-4.63,1-6.95,1.48-9.45,2.83a20.09,20.09,0,0,0-7,6.11,60.28,60.28,0,0,0,6.68,6.69,13,13,0,0,1,9.48-3.14c4,.45,4.93,3.25,8.92,3.15,3.48-.09,3.92-2.26,8.39-4.2a23.51,23.51,0,0,1,19.11.53c3.59,1.79,2.8,2.82,5.77,3.88,6.38,2.27,10.19-2.44,16.48-.84a15.51,15.51,0,0,1,5.66,2.88,59.45,59.45,0,0,0,12.92-13.38c-2.69-.82-7.63-.15-16.17-2.31C85.21,92.12,85.46,90.63,80.09,90.08Z"/><path class="cls-3" d="M15.64,100.81a60,60,0,0,1-4.92-6.71c.64-.44,1.36-.85,2.2-1.31a37.14,37.14,0,0,0,7-4.77A19.91,19.91,0,0,0,24,83.31,10.6,10.6,0,0,1,27.13,80c3-2.13,5.12-2.29,8.67-2.55a63.41,63.41,0,0,0,9.91-1.38,67.43,67.43,0,0,0,9-2.71,17.24,17.24,0,0,1,5.9-1.45,10.21,10.21,0,0,1,2.7.38,9.78,9.78,0,0,1,4.52,2.51,8.58,8.58,0,0,0,4.61,2.37,14,14,0,0,0,2.69.25,20.42,20.42,0,0,0,14.94-7.34,9.19,9.19,0,0,0,1.21-1.78,7.92,7.92,0,0,1,1.15-1.68c2.9-3.42,8.35-6.88,14-6.88a12.4,12.4,0,0,1,3.82.58c3.9,1.26,6.92,4.47,9,9.56a59.13,59.13,0,0,1-10.19,26.51,20.9,20.9,0,0,0-4.24-.53,62.17,62.17,0,0,1-11.94-1.78,38.76,38.76,0,0,1-7-2.39,16.31,16.31,0,0,0-5.81-1.6c-.9-.09-1.77-.14-2.58-.14A21.63,21.63,0,0,0,71,91a15.82,15.82,0,0,1-4.54.81,13,13,0,0,1-2.94-.36,17.74,17.74,0,0,1-7.46-4C54.34,86.11,52.87,85,50.83,85a5.61,5.61,0,0,0-1.07.1,6,6,0,0,0-3.34,1.89,14,14,0,0,1-5,3.14,14.42,14.42,0,0,1-4.24,1,45,45,0,0,0-5.11.82c-4.62,1-6.94,1.47-9.44,2.83a19.65,19.65,0,0,0-7,6.11h0Z"/><path class="cls-3" d="M110.26,60.32c-6.59-2.12-14.06,1.9-17.79,6.3-1.37,1.62-.91,1.72-2.36,3.46C86.05,75,78.85,78.41,72.48,77.17c-4.8-.94-4.26-3.6-9.13-4.89C58,70.86,56,73.78,45.71,76.06,35,78.44,32.19,76.38,27.14,80c-3.6,2.58-2.38,3.77-7.25,8-4,3.52-7.09,4.66-9.16,6.07a58.84,58.84,0,0,0,4.92,6.7,20.09,20.09,0,0,1,7-6.11c2.5-1.35,4.82-1.84,9.45-2.83,5.46-1.16,6.25-.58,9.34-1.78,5.16-2,5-4.45,8.29-5,5-.92,6.44,4.68,13.75,6.4C70,93,71.43,89.18,80.09,90.08c5.37.55,5.12,2,12.8,4,8.54,2.16,13.48,1.49,16.17,2.31a58.75,58.75,0,0,0,10.19-26.49C117.72,66.1,115,61.86,110.26,60.32Z"/><path class="cls-4" d="M10.72,94.1a58.78,58.78,0,0,1-5-9.78c.32-.43.7-.86,1.12-1.35a49.29,49.29,0,0,0,4.21-5.49A37.9,37.9,0,0,0,14.63,71a9,9,0,0,1,2.42-3.63c2.34-2.16,4.3-2.47,7-2.9a34.93,34.93,0,0,0,7.78-2,24.26,24.26,0,0,0,8.37-5.18,13.5,13.5,0,0,1,6.9-3.8,23.52,23.52,0,0,1,5-.54c4.7,0,10.6,1.43,13.07,5.43a9.24,9.24,0,0,1,1.22,3.75,6,6,0,0,0,1.77,4,5.77,5.77,0,0,0,4.3,1.42l1,0,1,0a7.62,7.62,0,0,1,3,.51c2.28,1,3.71,3.38,4.64,7.89a18.05,18.05,0,0,1-7,1.51h0a13.94,13.94,0,0,1-2.69-.26,8.58,8.58,0,0,1-4.62-2.37,9.87,9.87,0,0,0-4.52-2.51,10.47,10.47,0,0,0-2.69-.37,17,17,0,0,0-5.9,1.45,66.43,66.43,0,0,1-9,2.7,62.46,62.46,0,0,1-9.92,1.38c-3.54.27-5.69.43-8.66,2.56A10.48,10.48,0,0,0,24,83.32,20.1,20.1,0,0,1,19.9,88a37.49,37.49,0,0,1-7,4.76c-.84.47-1.56.87-2.2,1.3h0Z"/><path class="cls-4" d="M77.52,68c-3.16-1.31-6.47.7-9.29-1.89-2.41-2.21-1.15-4.73-3-7.71-3.07-5-11.76-6.31-18.11-4.88-7,1.59-6.19,5.46-15.27,9-7.71,3-10.72,1.11-14.8,4.88-2.71,2.5-1.65,3.57-6,10.08a70.56,70.56,0,0,1-5.34,6.84,59.21,59.21,0,0,0,5,9.78c2.07-1.41,5.14-2.55,9.16-6.07,4.87-4.26,3.65-5.45,7.25-8,5-3.62,7.87-1.56,18.57-3.94C56,73.78,58,70.86,63.35,72.28c4.87,1.29,4.33,4,9.13,4.89a16.83,16.83,0,0,0,9.67-1.25C81.15,71.06,79.62,68.91,77.52,68Z"/><path class="cls-5" d="M14.63,71a9,9,0,0,1,2.42-3.64c2.34-2.16,4.3-2.47,7-2.9a34.93,34.93,0,0,0,7.78-2,24.26,24.26,0,0,0,8.37-5.18,13.5,13.5,0,0,1,6.9-3.8,23.24,23.24,0,0,1,5-.54,22.35,22.35,0,0,1,7.1,1.11c-4.32.59-6.15,1.4-7.85,2.59a11.77,11.77,0,0,0-3.83,4.23,11.93,11.93,0,0,1-3.89,4.28c-3.36,2.35-6,2.54-10.23,2.87a82.06,82.06,0,0,0-11.5,1.54c-2.93.6-5.34,1.11-7.41,1.66h0Z"/><path class="cls-5" d="M43.67,65.2c4.6-3.22,3.16-5.31,7.71-8.5,1.62-1.13,3.39-2,7.86-2.58a23.41,23.41,0,0,0-12.11-.57c-7,1.59-6.19,5.46-15.27,9-7.71,3-10.72,1.11-14.8,4.88a9.48,9.48,0,0,0-2.53,3.87c2.07-.55,4.51-1.06,7.41-1.66C34.38,67,38,69.15,43.67,65.2Z"/><path class="cls-6" d="M2.46,75.92A59.07,59.07,0,0,1,114.77,39.37a17.29,17.29,0,0,0-5.19-.79,17,17,0,0,0-4.67.64c-3.22.93-4.67,2.5-6.35,4.32a19.44,19.44,0,0,1-5.77,4.65c-2.77,1.44-4.42,1.44-10.52,1.46-2.49,0-5.58,0-9.79.12a147.72,147.72,0,0,0-14.81.88,22.44,22.44,0,0,0-7.1-1.11,23.17,23.17,0,0,0-5,.54,13.6,13.6,0,0,0-6.9,3.79,24,24,0,0,1-8.37,5.19,34.85,34.85,0,0,1-7.79,2c-2.72.43-4.68.74-7,2.9a8.85,8.85,0,0,0-2.42,3.63l-.1.23c-4.76,1.26-7.19,2.65-9,5.11a10.68,10.68,0,0,0-1.53,3v0Z"/><path class="cls-6" d="M59.07,0A59,59,0,0,0,2.47,75.92,10.46,10.46,0,0,1,4,72.9c1.91-2.64,4.62-4,9-5.1a9.43,9.43,0,0,1,2.52-3.87c4.08-3.77,7.09-1.9,14.8-4.88,9.09-3.51,8.24-7.39,15.28-9a23.32,23.32,0,0,1,12.11.58,146,146,0,0,1,14.81-.89c14.83-.36,16.43.43,20.31-1.58,6.15-3.18,6.13-7.25,12.12-9a17.33,17.33,0,0,1,9.85.16A59.08,59.08,0,0,0,59.07,0Z"/><path class="cls-4" d="M5.74,84.32C5.11,82.74,4.54,81.09,4,79.4a10.8,10.8,0,0,1,1.53-3c2-2.81,4.94-4,9-5.11a35.92,35.92,0,0,1-3.45,6.23A49.29,49.29,0,0,1,6.87,83c-.42.49-.79.92-1.12,1.34h0Z"/><path class="cls-4" d="M11.08,77.48a37.9,37.9,0,0,0,3.45-6.21c-4.34,1.15-7,2.47-9,5.11a10.7,10.7,0,0,0-1.53,3c.5,1.68,1.06,3.32,1.7,4.93A70.56,70.56,0,0,0,11.08,77.48Z"/><path class="cls-7" d="M82.14,75.92c-.93-4.5-2.36-6.93-4.63-7.88a7.7,7.7,0,0,0-3-.5l-1,0-1,0a5.8,5.8,0,0,1-4.31-1.43,6,6,0,0,1-1.78-4,9.42,9.42,0,0,0-1.21-3.75,11,11,0,0,0-6-4.3,140.6,140.6,0,0,1,14.81-.9c4.21-.1,7.31-.11,9.79-.12,6.11,0,7.75,0,10.52-1.46A19.57,19.57,0,0,0,100.13,47c1.67-1.82,3.12-3.39,6.35-4.32a17.29,17.29,0,0,1,9.86.16,58.83,58.83,0,0,1,3.37,19.71,60.46,60.46,0,0,1-.45,7.33c-2.08-5.08-5.1-8.3-9-9.55a12.3,12.3,0,0,0-3.81-.59c-5.62,0-11.07,3.46-14,6.88a8.33,8.33,0,0,0-1.15,1.68,9,9,0,0,1-1.21,1.79,21.49,21.49,0,0,1-8,5.84h0Z"/><path class="cls-7" d="M106.49,42.69c-6,1.72-6,5.78-12.13,9-3.87,2-5.47,1.22-20.31,1.57a146.17,146.17,0,0,0-14.81.89,11,11,0,0,1,6,4.31c1.84,3,.58,5.5,3,7.71,2.82,2.59,6.13.58,9.29,1.89,2.1.88,3.63,3,4.63,7.89a21.35,21.35,0,0,0,8-5.84c1.45-1.74,1-1.84,2.36-3.46,3.73-4.4,11.2-8.42,17.79-6.3,4.78,1.54,7.46,5.78,9,9.56a59.1,59.1,0,0,0-2.91-27A17.24,17.24,0,0,0,106.49,42.69Z"/></g></g></svg>