<svg width="45" height="35" viewBox="0 0 45 35" fill="none" xmlns="http://www.w3.org/2000/svg">
<path d="M39.8624 0H5.13743C2.30445 0 0 2.30468 0 5.13743V29.7374C0 32.5701 2.30468 34.8748 5.13743 34.8748H39.8624C42.6951 34.8748 45 32.5701 45 29.7374V5.13743C45 2.30468 42.6951 0 39.8624 0ZM22.5 32.175H5.13743C3.7935 32.175 2.7 31.0817 2.7 29.7376V5.13743C2.7 3.79328 3.7935 2.7 5.13743 2.7H22.5V32.175ZM41.0805 12.0665C40.9574 14.1242 39.8052 18.2002 36.385 21.0316C37.4233 21.2616 38.5515 21.3856 39.742 21.3856V24.0856C37.368 24.0856 35.1884 23.6538 33.3364 22.8874C31.6064 23.6302 29.5184 24.0856 27.0083 24.0856V21.3856C28.163 21.3856 29.2412 21.2729 30.2407 21.0485C28.348 19.4699 27.2297 17.3785 27.2297 15.023H29.9295C29.9295 17.0158 31.203 18.7394 33.2784 19.8882C34.3226 19.2897 35.2363 18.513 36.0153 17.5592C37.2816 16.0099 37.9283 14.292 38.21 13.0498H27.0083V10.3498H32.0251V7.65292H34.7251V10.35H39.4625C39.9094 10.35 40.3405 10.537 40.6456 10.863C40.9468 11.1823 41.1068 11.6224 41.0805 12.0665Z" fill="black"/>
<path d="M9.68285 21.5464L8.68161 24.0795H5.08813L11.018 10.3342H14.6115L20.4043 24.0795H16.6732L15.6915 21.5464H9.68285ZM12.7069 13.8096L10.7039 18.8955H14.6704L12.7069 13.8096Z" fill="black"/>
</svg>
