<svg width="20" height="20" viewBox="0 0 20 20" fill="none" xmlns="http://www.w3.org/2000/svg">
<path d="M13.5 6.5H13.51M8.5 5.5H8.51M5.5 9.5H5.51M10 19C5.02944 19 1 14.9706 1 10C1 5.02944 5.02944 1 10 1C14.9706 1 19 5.02944 19 10C19 11.6569 17.6569 13 16 13H15.4C15.0284 13 14.8426 13 14.6871 13.0246C13.8313 13.1602 13.1602 13.8313 13.0246 14.6871C13 14.8426 13 15.0284 13 15.4V16C13 17.6569 11.6569 19 10 19ZM14 6.5C14 6.77614 13.7761 7 13.5 7C13.2239 7 13 6.77614 13 6.5C13 6.22386 13.2239 6 13.5 6C13.7761 6 14 6.22386 14 6.5ZM9 5.5C9 5.77614 8.7761 6 8.5 6C8.2239 6 8 5.77614 8 5.5C8 5.22386 8.2239 5 8.5 5C8.7761 5 9 5.22386 9 5.5ZM6 9.5C6 9.7761 5.77614 10 5.5 10C5.22386 10 5 9.7761 5 9.5C5 9.2239 5.22386 9 5.5 9C5.77614 9 6 9.2239 6 9.5Z" stroke="black" stroke-width="2" stroke-linecap="round" stroke-linejoin="round"/>
</svg>
